<?xml version="1.0" encoding="UTF-8" standalone="no"?>
<svg
   xmlns:dc="http://purl.org/dc/elements/1.1/"
   xmlns:cc="http://creativecommons.org/ns#"
   xmlns:rdf="http://www.w3.org/1999/02/22-rdf-syntax-ns#"
   xmlns:svg="http://www.w3.org/2000/svg"
   xmlns="http://www.w3.org/2000/svg"
   xmlns:sodipodi="http://sodipodi.sourceforge.net/DTD/sodipodi-0.dtd"
   xmlns:inkscape="http://www.inkscape.org/namespaces/inkscape"
   width="100mm"
   height="100mm"
   viewBox="0 0 100 100"
   version="1.1"
   id="svg8"
   inkscape:version="1.0.1 (3bc2e813f5, 2020-09-07)"
   sodipodi:docname="base.svg">
  <defs
     id="defs2" />
  <sodipodi:namedview
     id="base"
     pagecolor="#ffffff"
     bordercolor="#666666"
     borderopacity="1.0"
     inkscape:pageopacity="0.0"
     inkscape:pageshadow="2"
     inkscape:zoom="0.9899495"
     inkscape:cx="254.30457"
     inkscape:cy="207.45201"
     inkscape:document-units="mm"
     inkscape:current-layer="layer1"
     inkscape:document-rotation="0"
     showgrid="false"
     inkscape:window-width="1350"
     inkscape:window-height="729"
     inkscape:window-x="0"
     inkscape:window-y="0"
     inkscape:window-maximized="0" />
  <metadata
     id="metadata5">
    <rdf:RDF>
      <cc:Work
         rdf:about="">
        <dc:format>image/svg+xml</dc:format>
        <dc:type
           rdf:resource="http://purl.org/dc/dcmitype/StillImage" />
        <dc:title />
      </cc:Work>
    </rdf:RDF>
  </metadata>
  <g
     inkscape:label="Layer 1"
     inkscape:groupmode="layer"
     id="layer1"
     transform="translate(-3.5308265,-176.57109)">
    <g
       id="g31"
       transform="matrix(2.0075866,0,0,2.0036621,-3.5576138,-177.21772)">
      <path
         style="fill:#ff0000;stroke-width:0.2224"
         d="m 20.261324,223.6357 c -6.528621,-2.87834 -8.063696,-3.72892 -9.106218,-5.0457 -0.4913,-0.62055 -0.68966,-0.72166 -1.223345,-0.62361 -0.8703534,0.1599 -2.1470945,-0.81975 -2.8242137,-2.16705 -0.4764014,-0.94792 -0.5555885,-1.00874 -1.0065336,-0.7731 -0.4154083,0.21707 -0.5417844,0.19534 -0.8353882,-0.14365 -0.1902652,-0.21968 -0.3459366,-0.76849 -0.3459366,-1.21958 0,-0.66792 -0.1402667,-0.92041 -0.7555677,-1.3601 -0.7368502,-0.52655 -0.7480324,-0.56005 -0.4513933,-1.35243 0.1672958,-0.44689 0.7108963,-1.2802 1.2080008,-1.85181 0.7944666,-0.91354 0.8648729,-1.08489 0.5818866,-1.41616 -0.6108854,-0.7151 0.4150255,-1.75764 2.7201609,-2.76425 0.5525757,-0.2413 1.2189543,-0.43873 1.4808418,-0.43873 1.00137,0 0.749408,-0.41193 -0.2625308,-0.42921 -1.0081144,-0.0172 -1.0165312,-0.0229 -0.3146675,-0.21233 0.3966346,-0.10706 1.4519563,-0.16854 2.3451603,-0.13664 l 1.624006,0.058 0.76598,-1.40477 c 0.636072,-1.16653 0.71737,-1.47139 0.479359,-1.79762 -0.157641,-0.21606 -0.286621,-0.595 -0.286621,-0.84208 0,-0.27969 -0.498978,-0.84672 -1.322115,-1.50245 -1.135095,-0.90423 -1.322115,-1.15916 -1.322115,-1.80223 0,-0.78227 0.494284,-1.3957 1.124619,-1.3957 0.256808,0 0.316795,-0.10957 0.197144,-0.36008 -0.603255,-1.26306 -0.652213,-1.78142 -0.198351,-2.10012 0.248752,-0.17467 0.588999,-0.71147 0.756103,-1.1929 0.176713,-0.5091 0.555198,-1.0163 0.904652,-1.21229 1.097967,-0.61579 2.816469,-0.69265 4.218289,-0.18866 0.305015,0.10966 0.608894,-0.20349 1.370925,-1.41276 2.03549,-3.23014 5.78733,-6.95332 10.193364,-10.11551 2.345642,-1.68346 3.532966,-2.10836 4.851053,-1.736 1.145125,0.32349 1.600125,0.84027 3.265807,3.70927 2.529943,4.3576 3.548596,5.68519 5.230772,6.81713 2.79524,1.88092 3.832695,3.74215 3.588644,6.43814 -0.07253,0.80116 -0.207255,1.66794 -0.299401,1.92616 -0.159712,0.44758 -0.122726,0.46338 0.791702,0.33822 1.660711,-0.22731 3.953009,0.92345 2.923932,1.46785 -0.162952,0.0862 0.148106,0.50288 0.815496,1.09239 1.097584,0.9695 1.750358,1.88759 2.114187,2.97346 0.261313,0.77991 -0.120031,1.41735 -0.798017,1.33392 -0.42844,-0.0527 -0.547558,0.0972 -0.783262,0.98579 -0.539836,2.03514 -1.785757,3.11279 -2.971065,2.5698 -0.322692,-0.14782 -0.539149,-0.15376 -0.637538,-0.0175 -0.282842,0.39173 -1.520767,0.2101 -2.276152,-0.33397 -0.412577,-0.29716 -0.966163,-0.90274 -1.230194,-1.34574 -0.264032,-0.443 -0.74425,-0.89143 -1.067152,-0.99651 -0.442199,-0.14391 -0.625341,-0.39578 -0.74205,-1.02052 -0.08522,-0.4562 -0.205195,-0.82946 -0.266604,-0.82946 -0.06141,0 -0.38669,0.18519 -0.722848,0.41152 -0.336159,0.22634 -0.812957,0.41153 -1.059551,0.41153 -0.522596,0 -0.529759,0.10695 -0.117142,1.74897 0.221416,0.88113 0.407666,1.21284 0.65057,1.15869 0.187185,-0.0417 0.827116,-0.10922 1.422068,-0.14999 1.068627,-0.0732 1.072269,-0.0713 0.30048,0.15708 -1.104377,0.32682 -0.968894,0.58319 0.308202,0.58319 1.287096,0 2.756702,0.47459 2.756702,0.89023 0,0.16167 -0.163618,0.41018 -0.363596,0.55224 -0.314981,0.22376 -0.218101,0.39144 0.724582,1.25409 1.566161,1.43319 1.92993,2.34426 1.047562,2.62366 -0.472745,0.14969 -0.516981,0.32043 -0.544716,2.10242 -0.03317,2.1309 -0.15595,2.45246 -0.938116,2.45687 -0.381024,0.002 -0.708115,0.28458 -1.182745,1.02126 -0.360839,0.56007 -0.952603,1.18373 -1.315036,1.38593 -0.36243,0.20219 -1.031709,0.71997 -1.487286,1.15061 -1.088413,1.02885 -1.987786,1.4623 -7.296949,3.51673 -2.451508,0.94864 -5.112041,2.10539 -5.912301,2.57056 -0.800262,0.46518 -1.596171,0.83838 -1.76869,0.82935 -0.172519,-0.009 -3.199598,-1.28877 -6.726843,-2.84387 z"
         id="path24" />
      <path
         style="fill:#ffccaa;stroke-width:0.2224"
         d="m 33.81967,202.26759 c 0.156146,-0.31121 0.30986,-0.59909 0.341584,-0.63973 0.03172,-0.0406 0.387396,0.12708 0.790387,0.37271 1.024933,0.62469 2.403829,0.79425 2.789327,0.34299 0.294843,-0.34515 0.162892,-1.38489 -0.254632,-2.00643 -0.103996,-0.15481 0.125125,-0.0382 0.509156,0.25923 0.949557,0.73533 1.611937,1.00251 2.485317,1.00251 0.614212,0 0.736957,-0.0809 0.736957,-0.48569 0,-0.26713 -0.277089,-0.83519 -0.615753,-1.26236 l -0.615752,-0.77667 0.890875,0.44992 c 1.115423,0.56332 1.542553,0.43626 1.542553,-0.45887 0,-0.98432 -0.575373,-1.34037 -2.287471,-1.41553 l -1.438491,-0.0631 0.715563,-0.30911 c 1.519824,-0.65656 1.247161,-2.46866 -0.371454,-2.46866 -0.785775,0 -1.906609,0.78074 -1.906609,1.32809 0,0.42311 -0.0941,0.4067 -1.173382,-0.20466 -1.327317,-0.75186 -2.376108,-0.84349 -3.740685,-0.32682 l -1.134745,0.42966 -0.631515,-0.64242 c -1.157144,-1.17711 -3.184473,-1.67101 -5.014766,-1.2217 -0.702332,0.17242 -0.763673,0.1456 -0.888453,-0.38844 -0.181147,-0.77528 -1.786797,-1.44285 -3.470382,-1.44285 -0.986475,0 -1.211289,-0.0611 -1.104171,-0.30002 0.163308,-0.36428 -0.784237,-0.6108 -1.838599,-0.47834 l -0.721313,0.0906 0.520014,-0.47381 c 0.501818,-0.45722 0.504034,-0.4793 0.06333,-0.63109 -0.251175,-0.0865 -0.979377,-0.15838 -1.618227,-0.15969 -1.0099,-0.002 -1.253122,0.0853 -1.862981,0.66957 -0.796795,0.76332 -0.892091,1.50516 -0.344046,2.67826 l 0.35739,0.765 -0.712984,-0.70729 c -1.347939,-1.33716 -1.241556,-0.21443 0.124872,1.31785 l 0.812371,0.91098 -1.190673,-0.12071 c -1.068112,-0.10828 -1.190673,-0.0794 -1.190673,0.28015 0,0.22047 0.135216,0.54481 0.300481,0.72074 0.612177,0.65172 3.006294,2.02214 3.532669,2.02214 0.493084,0 0.535344,-0.0801 0.449356,-0.85192 -0.0737,-0.66147 -0.03904,-0.7703 0.15504,-0.48684 0.530116,0.77429 1.417231,1.57182 2.069535,1.86056 0.94275,0.41729 3.670144,0.40485 4.080734,-0.0186 0.170579,-0.17593 0.511499,-0.41212 0.757599,-0.52486 0.421063,-0.19289 0.418685,-0.15903 -0.04033,0.57403 -0.620761,0.99139 -0.612734,1.15225 0.0925,1.85388 0.534105,0.53138 0.711046,0.57616 2.223558,0.56279 1.976152,-0.0175 3.445794,-0.39092 3.447061,-0.87592 4.8e-4,-0.21911 0.165365,-0.11326 0.453656,0.29141 0.707779,0.99351 1.651526,1.52496 2.708017,1.52496 0.790125,0 0.978077,-0.0873 1.218178,-0.56584 z"
         id="path48" />
      <path
         style="fill:#ffccaa;stroke-width:0.2224"
         d="m 47.556638,205.25113 c 0.07972,-0.25463 0.146426,-0.80261 0.148231,-1.21773 0.0068,-1.55121 0.318976,-1.58153 0.846358,-0.0822 0.275952,0.78453 0.628606,1.46262 0.783673,1.50686 0.15507,0.0443 0.507027,-0.22727 0.78213,-0.60337 0.419695,-0.57378 0.485284,-0.93216 0.407584,-2.22703 -0.05093,-0.84877 -0.180307,-1.7284 -0.287507,-1.95474 -0.115812,-0.24452 0.258231,-0.0393 0.921721,0.50581 0.81082,0.6661 1.11663,0.81925 1.11663,0.55923 0,-1.24878 -1.821058,-3.16601 -3.645199,-3.83771 -0.915755,-0.33721 -1.149517,-0.50322 -0.899435,-0.63874 0.185848,-0.10071 0.533591,-0.18453 0.772764,-0.18626 0.239173,-0.002 0.368005,-0.0957 0.286293,-0.20891 -0.257993,-0.35732 -1.951932,-0.23224 -2.557505,0.18884 -0.50674,0.35237 -0.563906,0.55062 -0.533976,1.85186 0.01844,0.80148 -0.0083,1.45724 -0.0594,1.45724 -0.05111,0 -0.516839,-0.32782 -1.034957,-0.72849 -0.518118,-0.40067 -0.992488,-0.6553 -1.054154,-0.56584 -0.275933,0.40028 -0.433353,1.55422 -0.288851,2.11738 0.164685,0.64181 0.600962,0.85706 0.600962,0.2965 0,-0.17644 0.108173,-0.26356 0.240384,-0.19362 0.132212,0.0699 0.240471,0.28374 0.240575,0.47511 2.4e-4,0.55423 1.365435,2.87302 2.022591,3.43552 0.740858,0.63415 1.004801,0.64529 1.191091,0.0503 z"
         id="path46" />
      <path
         style="fill:#00ff00;stroke-width:0.2224"
         d="m 33.138535,222.50066 c 3.351776,-1.40525 6.479428,-2.84456 6.950337,-3.19847 0.470908,-0.35391 1.475807,-1.38009 2.233108,-2.28039 1.442456,-1.71485 1.920997,-2.01551 1.710952,-1.07499 -0.115916,0.51904 -0.100274,0.53241 0.204925,0.17514 0.181731,-0.21274 0.504421,-0.85912 0.717089,-1.43642 0.212666,-0.57729 0.438178,-1.18592 0.501137,-1.3525 0.100781,-0.26666 0.143411,-0.26666 0.356507,0 0.524193,0.65595 -0.08672,-1.17916 -0.875276,-2.62922 -0.44618,-0.82047 -0.703022,-1.49177 -0.570762,-1.49177 0.132259,0 0.586663,0.15067 1.009786,0.33482 l 0.769312,0.33482 -0.574127,-0.53271 c -0.315772,-0.29299 -1.154113,-0.73848 -1.862981,-0.98997 -0.70887,-0.25149 -1.288853,-0.52545 -1.288853,-0.6088 0,-0.0834 0.325464,-0.21274 0.723252,-0.28753 0.397789,-0.0748 0.661837,-0.22103 0.586774,-0.32499 -0.208966,-0.28941 -2.092666,-0.22479 -3.200567,0.1098 -0.921966,0.27844 -1.005998,0.27234 -1.232144,-0.0893 -0.133486,-0.2135 -0.253483,-0.88037 -0.266661,-1.48195 -0.04164,-1.90091 -0.172505,-2.08081 -1.544361,-2.12299 -0.657856,-0.0202 -1.55861,-0.19767 -2.00168,-0.39432 -0.782914,-0.34748 -0.815421,-0.34551 -1.155457,0.07 -0.703483,0.8597 -3.618959,0.44888 -4.50582,-0.63492 -0.340052,-0.41557 -0.437036,-0.4294 -1.356805,-0.19352 -1.566428,0.40172 -4.101567,0.49788 -4.796531,0.18194 -0.330529,-0.15026 -0.817308,-0.61797 -1.081731,-1.03934 -0.413974,-0.65969 -0.597661,-0.76623 -1.322115,-0.76685 -0.462741,-4.1e-4 -1.513462,-0.27289 -2.334937,-0.60554 l -1.49359,-0.60481 -0.691263,0.7593 c -0.775622,0.85196 -1.660302,2.24041 -2.548717,4.00004 -0.560368,1.10989 -0.648214,1.18313 -1.419109,1.18313 -1.173306,0 -3.1056275,0.33941 -4.0471463,0.71087 l -0.8065841,0.31823 0.9615384,-0.11732 0.9615385,-0.11732 -1.8028846,1.5932 c -0.9915865,0.87627 -1.5092144,1.43825 -1.1502844,1.24886 0.9830298,-0.5187 1.0078779,-0.43895 0.2292873,0.7359 -0.692169,1.04445 -1.3310656,2.61621 -1.1325262,2.78615 0.053299,0.0456 0.335668,-0.31954 0.6274865,-0.81147 0.6029777,-1.01647 1.3125822,-1.84888 1.4649433,-1.71847 0.056502,0.0484 0.017204,0.92237 -0.087327,1.94222 -0.1704452,1.66294 -0.1343436,1.97694 0.3498545,3.04295 l 0.539912,1.18866 0.1233123,-2.05761 c 0.067822,-1.13169 0.1998889,-1.91872 0.2934825,-1.74897 0.093594,0.16975 0.4573887,1.00309 0.8084343,1.85185 0.887652,2.14619 2.082823,3.60266 3.872121,4.71868 1.064103,0.6637 11.941896,5.65385 12.996254,5.96198 0.03562,0.0104 2.80712,-1.13082 6.158896,-2.53607 z"
         id="path28" />
      <path
         style="fill:#999999;stroke-width:0.2224"
         d="m 15.196131,207.74494 c -1.205139,-0.67466 -1.509826,-1.12545 -0.600961,-0.88914 1.069374,0.27804 2.655504,1.54061 1.923077,1.53077 -0.09916,-0.001 -0.694111,-0.29006 -1.322116,-0.64163 z"
         id="path44" />
      <path
         style="fill:#008000;stroke-width:0.2224"
         d="m 26.234006,214.13315 c -0.246201,-0.12745 -0.797119,-0.17077 -1.249035,-0.0982 -0.652421,0.10477 -0.857469,0.0516 -1.061914,-0.2754 -0.139352,-0.22287 -0.253368,-0.5965 -0.253368,-0.83028 0,-0.24065 -0.156431,-0.42505 -0.360577,-0.42505 -0.436585,0 -0.447095,0.0928 -0.0692,0.61072 0.16026,0.21965 0.223732,0.45728 0.141049,0.52805 -0.274597,0.23505 -1.310217,-0.51421 -2.4553,-1.77636 -0.622035,-0.68563 -1.673908,-1.5355 -2.337494,-1.88859 -1.049883,-0.55864 -1.144379,-0.66167 -0.727872,-0.79355 1.136101,-0.35974 0.812282,-1.34525 -0.899414,-2.73728 -0.722934,-0.58793 -0.974346,-1.14464 -0.516921,-1.14464 0.124409,0 0.293052,0.0926 0.374763,0.20577 0.172698,0.23918 0.614449,0.27887 0.572495,0.0514 -0.09316,-0.50504 0.12082,-0.46707 0.869813,0.15432 0.630853,0.52338 0.841346,0.61069 0.841346,0.349 0,-0.35617 0.359991,-0.47698 0.567,-0.19028 0.26854,0.37193 2.302736,1.48783 2.169202,1.18997 -0.237382,-0.52951 0.699036,-0.38212 1.734943,0.27307 0.51563,0.32613 1.418624,1.01957 2.006653,1.54099 0.754495,0.66904 1.124824,0.873 1.258338,0.69306 0.416037,-0.56072 0.173858,-1.5239 -0.64479,-2.56443 -1.027148,-1.30555 -1.045628,-1.43298 -0.123148,-0.8492 0.395008,0.24998 0.754829,0.41479 0.799601,0.36625 0.04477,-0.0485 0.321907,-0.43071 0.615854,-0.84925 0.498566,-0.70989 1.335145,-1.17382 1.642415,-0.91081 0.07374,0.0631 -0.204847,0.44517 -0.619077,0.849 -0.675695,0.65873 -0.753145,0.8693 -0.753145,2.04769 0,2.51792 0.623214,2.63025 2.505534,0.45157 0.718875,-0.83205 1.647421,-1.75798 2.06343,-2.05761 0.75382,-0.54294 1.681036,-0.72993 1.681036,-0.33902 0,0.11317 -0.126202,0.20576 -0.280449,0.20576 -0.154245,0 -0.231152,0.0422 -0.170902,0.0938 0.06025,0.0516 0.56107,-0.0394 1.112931,-0.20214 1.132829,-0.33407 2.560442,-0.19907 2.370694,0.22418 -0.06549,0.14609 0.03675,0.37632 0.227207,0.51162 0.578476,0.41094 0.398714,0.66755 -0.374865,0.53512 -0.536075,-0.0918 -0.721154,-0.0469 -0.721154,0.17495 0,0.23814 -0.129265,0.25634 -0.640106,0.0901 -0.998077,-0.32481 -1.24161,0.0614 -0.624072,0.98965 0.421647,0.63381 0.666899,0.78349 1.369666,0.83592 0.470827,0.0351 0.85605,0.13847 0.85605,0.22965 0,0.0912 -0.737235,0.44796 -1.6383,0.79283 -1.09418,0.41878 -1.859096,0.87482 -2.303103,1.37309 -0.36564,0.41034 -1.076904,0.9795 -1.580587,1.26481 -0.648301,0.36723 -0.88213,0.62891 -0.80056,0.89589 0.102137,0.33433 -0.04414,0.37651 -1.288327,0.37149 -0.77195,-0.003 -1.728065,0.0542 -2.1247,0.12737 -0.397113,0.0733 -0.919082,0.0306 -1.161644,-0.095 z"
         id="path34" />
      <path
         style="fill:#ffccaa;stroke-width:0.2224"
         d="m 33.062535,210.72393 c 0.783454,-0.63966 1.424462,-1.34019 1.424462,-1.55674 0,-0.6282 -0.457815,-1.18972 -0.969996,-1.18972 -0.404504,0 -0.472312,0.14313 -0.472312,0.99692 0,0.72276 -0.127296,1.09552 -0.462885,1.35548 -0.586363,0.45422 -1.249692,0.35029 -1.599702,-0.25064 -0.234375,-0.4024 -0.312375,-0.42474 -0.566764,-0.16237 -0.457774,0.47213 0.303911,1.97008 1.00176,1.97008 0.121536,0 0.861983,-0.52336 1.645437,-1.16301 z"
         id="path42" />
      <path
         style="fill:#808080;stroke-width:0.2224"
         d="m 29.587571,211.17485 c -0.21968,-0.60078 -0.346072,-0.69367 -0.808598,-0.5943 -0.301522,0.0648 -0.702159,0.008 -0.890308,-0.12525 -0.251942,-0.17897 -0.471531,-0.18371 -0.833293,-0.018 -0.270161,0.12376 -0.750365,0.16934 -1.067119,0.10129 -0.483217,-0.10381 -0.617423,-0.0218 -0.833774,0.50943 -0.319963,0.78564 0.05853,0.84217 1.380537,0.20618 l 0.887517,-0.42697 1.16419,0.52985 c 0.640302,0.29142 1.186021,0.52985 1.212709,0.52985 0.02669,0 -0.06865,-0.32044 -0.211861,-0.71208 z"
         id="path40" />
      <path
         style="fill:#ffccaa;stroke-width:0.2224"
         d="m 23.944213,211.31609 c 0.589167,-0.52777 0.730963,-1.1509 0.36056,-1.5845 -0.311717,-0.3649 -0.346066,-0.3537 -0.664437,0.21655 -0.655606,1.1743 -2.374493,0.7074 -2.374493,-0.64498 0,-0.55783 -0.11942,-0.70378 -0.723313,-0.88398 -0.640126,-0.19101 -0.766061,-0.15998 -1.095015,0.26975 -0.360112,0.47044 -0.324441,0.52781 1.143986,1.83974 1.344662,1.20136 1.596967,1.34222 2.236007,1.24833 0.396176,-0.0582 0.898693,-0.26561 1.116705,-0.46091 z"
         id="path38" />
      <path
         style="fill:#808080;stroke-width:0.2224"
         d="m 28.338759,213.29701 c 0.452629,-0.17652 0.688257,-0.17697 0.934872,-0.002 0.181344,0.12883 0.397087,0.17656 0.47943,0.10608 0.203604,-0.17428 -0.268528,-0.89709 -0.585971,-0.89709 -0.140204,0 -0.58287,-0.19988 -0.983704,-0.44419 -0.68188,-0.41561 -0.7771,-0.42396 -1.479415,-0.12978 -0.412846,0.17294 -1.056601,0.42045 -1.430568,0.55003 -0.373967,0.12959 -0.63638,0.34747 -0.58314,0.48419 0.202863,0.52093 2.604253,0.73981 3.648496,0.33255 z"
         id="path36" />
      <path
         style="fill:#808080;stroke-width:0.2224"
         d="m 27.46696,218.34839 c -0.03922,-1.8783 0.01209,-3.45903 0.114017,-3.51275 0.469414,-0.24737 0.957553,1.53142 0.946363,3.44857 -0.01031,1.76567 -0.437726,3.47927 -0.867827,3.47927 -0.06668,0 -0.153333,-1.53679 -0.192553,-3.41509 z"
         id="path32" />
      <path
         style="fill:#666666;stroke-width:0.2224"
         d="m 26.723994,223.74479 c -0.575998,-1.1991 -0.92056,-1.44094 -4.977382,-3.4935 -5.822567,-2.94594 -6.74774,-3.47952 -8.315994,-4.79613 -2.284392,-1.91782 -3.384223,-4.13661 -2.78266,-5.6137 0.238869,-0.58653 0.01359,-0.88514 -0.319615,-0.42366 -0.268257,0.37153 -0.6367712,0.21496 -0.4812495,-0.20447 0.1167687,-0.31491 0.064681,-0.38151 -0.2241856,-0.28662 -0.6907087,0.22687 -0.3869974,-0.33242 0.4049541,-0.74573 1.623831,-0.84747 3.952918,-0.27956 4.641869,1.13184 0.750448,1.53738 0.308072,1.7648 -0.804583,0.41362 -0.419361,-0.50926 -0.932483,-0.92592 -1.140271,-0.92592 -0.443441,0 -1.075438,1.17876 -1.072071,1.99956 0.004,0.96853 1.130314,2.71071 2.483749,3.84177 1.460743,1.22073 3.376979,2.32752 7.357387,4.24951 1.583289,0.76451 3.395437,1.84141 4.266827,2.53563 0.833079,0.6637 1.518132,1.08036 1.522341,0.92593 0.0145,-0.53211 4.416435,-3.1071 7.640002,-4.46917 1.763841,-0.74528 3.635007,-1.66866 4.158147,-2.05195 1.644072,-1.20457 2.381839,-3.01006 1.883985,-4.61054 -0.467158,-1.50179 -1.438252,-1.99986 -2.526053,-1.2956 -0.676997,0.4383 -0.898404,0.38308 -0.769964,-0.19204 0.0623,-0.27897 -0.0062,-0.54213 -0.152264,-0.5848 -0.146048,-0.0427 0.209469,-0.28593 0.790038,-0.54059 1.463005,-0.64172 2.853246,-0.46051 4.000397,0.52141 1.211858,1.03731 1.134563,1.81273 -0.08513,0.854 l -0.588981,-0.46296 0.29652,0.48704 c 0.494418,0.81209 0.236041,3.65745 -0.432226,4.75987 -1.001024,1.65138 -2.101106,2.41888 -5.579212,3.89253 -1.790872,0.75878 -3.792074,1.69472 -4.447115,2.07987 -1.831685,1.07699 -3.955411,2.93004 -3.955411,3.45128 0,0.71283 -0.322241,0.53113 -0.791849,-0.44648 z"
         id="path30" />
    </g>
  </g>
</svg>
