<?xml version="1.0" encoding="UTF-8" standalone="no"?>
<svg
   xmlns:dc="http://purl.org/dc/elements/1.1/"
   xmlns:cc="http://creativecommons.org/ns#"
   xmlns:rdf="http://www.w3.org/1999/02/22-rdf-syntax-ns#"
   xmlns:svg="http://www.w3.org/2000/svg"
   xmlns="http://www.w3.org/2000/svg"
   xmlns:sodipodi="http://sodipodi.sourceforge.net/DTD/sodipodi-0.dtd"
   xmlns:inkscape="http://www.inkscape.org/namespaces/inkscape"
   width="50mm"
   height="50mm"
   viewBox="0 0 50 50"
   version="1.1"
   id="svg8"
   inkscape:version="1.0.1 (3bc2e813f5, 2020-09-07)"
   sodipodi:docname="boca.svg">
  <defs
     id="defs2" />
  <sodipodi:namedview
     id="base"
     pagecolor="#ffffff"
     bordercolor="#666666"
     borderopacity="1.0"
     inkscape:pageopacity="0.0"
     inkscape:pageshadow="2"
     inkscape:zoom="2.8"
     inkscape:cx="63.715109"
     inkscape:cy="99.394499"
     inkscape:document-units="mm"
     inkscape:current-layer="layer1"
     inkscape:document-rotation="0"
     showgrid="false"
     inkscape:window-width="1350"
     inkscape:window-height="729"
     inkscape:window-x="0"
     inkscape:window-y="0"
     inkscape:window-maximized="0" />
  <metadata
     id="metadata5">
    <rdf:RDF>
      <cc:Work
         rdf:about="">
        <dc:format>image/svg+xml</dc:format>
        <dc:type
           rdf:resource="http://purl.org/dc/dcmitype/StillImage" />
        <dc:title></dc:title>
      </cc:Work>
    </rdf:RDF>
  </metadata>
  <g
     inkscape:label="Layer 1"
     inkscape:groupmode="layer"
     id="layer1"
     transform="translate(-3.4773812,-176.49599)">
    <path
       style="fill:#999999;stroke-width:0.2224"
       d="m 15.196131,207.74494 -0.409107,-0.2416 -0.32102,-0.21518 -0.229265,-0.18334 -0.13384,-0.14606 -0.03475,-0.10337 0.06802,-0.0552 0.174449,-0.002 0.284551,0.0573 0.4197,0.14601 0.43492,0.21186 0.416913,0.25126 0.365681,0.26421 0.28122,0.25072 0.163535,0.21078 0.01262,0.14438 -0.171515,0.0516 -0.05952,-0.0134 -0.10058,-0.0378 -0.136214,-0.0595 -0.166426,-0.0786 -0.191216,-0.095 -0.210583,-0.10882 -0.224527,-0.11996 z"
       id="path44"
       sodipodi:nodetypes="ccccccccccccccccccccccccc" />
    <path
       style="fill:#008000;stroke-width:0.2224"
       d="m 26.234006,214.13315 -0.10582,-0.0169 -0.129657,-0.0385 -0.148762,-0.0418 -0.163135,-0.0269 -0.172779,-0.009 -0.17769,0.001 -0.177871,0.0114 -0.173321,0.0218 -0.22456,0.0317 -0.187854,0.0155 -0.156384,-0.002 -0.13015,-0.0209 -0.109151,-0.0411 -0.09339,-0.0627 -0.08286,-0.0857 -0.07757,-0.11002 -0.0509,-0.0901 -0.04748,-0.1008 -0.04303,-0.10813 -0.03753,-0.11204 -0.031,-0.11255 -0.02343,-0.10966 -0.01482,-0.10336 -0.0052,-0.0937 -0.0071,-0.0874 -0.02051,-0.0806 -0.03263,-0.0723 -0.04347,-0.0625 -0.05304,-0.0512 -0.06134,-0.0385 -0.06836,-0.0242 -0.07411,-0.008 -0.143821,0.005 -0.104317,0.0176 -0.06526,0.0341 -0.02664,0.0545 0.01154,0.0787 0.04928,0.10692 0.08658,0.13898 0.123431,0.17494 0.05546,0.0829 0.04581,0.0824 0.03558,0.0797 0.02477,0.0749 0.01338,0.0679 0.0014,0.0588 -0.01113,0.0475 -0.02425,0.034 -0.137374,0.0429 -0.201085,-0.0438 -0.25716,-0.12506 -0.305599,-0.20077 -0.346403,-0.27095 -0.379572,-0.3356 -0.405105,-0.39474 -0.423002,-0.44834 -0.251814,-0.26352 -0.282524,-0.27117 -0.303646,-0.27107 -0.315182,-0.26324 -0.317129,-0.24764 -0.309489,-0.22431 -0.292262,-0.19324 -0.265448,-0.1544 -0.349791,-0.18908 -0.26543,-0.15204 -0.186278,-0.12069 -0.112334,-0.095 -0.0436,-0.075 0.01993,-0.0607 0.07826,-0.052 0.131369,-0.049 0.357745,-0.16381 0.221721,-0.2199 0.08654,-0.27343 -0.04779,-0.32439 -0.181283,-0.37278 -0.313929,-0.4186 -0.44573,-0.46184 -0.576689,-0.50253 -0.248535,-0.21798 -0.201548,-0.2089 -0.151781,-0.19366 -0.09923,-0.17225 -0.0439,-0.1447 0.01421,-0.11098 0.0751,-0.0711 0.138771,-0.0251 0.04847,0.004 0.05108,0.012 0.05215,0.019 0.05169,0.0252 0.04969,0.0305 0.04615,0.0349 0.04107,0.0386 0.03446,0.0413 0.0759,0.0802 0.09231,0.0607 0.09989,0.0404 0.09865,0.0193 0.08859,-0.003 0.0697,-0.0252 0.042,-0.0487 0.0055,-0.0729 -0.02009,-0.16386 0.01137,-0.11247 0.04551,-0.0606 0.08231,-0.008 0.121789,0.0445 0.163935,0.0978 0.208751,0.15153 0.256239,0.20575 0.217276,0.176 0.180326,0.13613 0.145836,0.0973 0.113805,0.0595 0.08423,0.0227 0.05712,-0.0131 0.03247,-0.0479 0.01028,-0.0816 0.01587,-0.1222 0.04361,-0.0981 0.06534,-0.072 0.08105,-0.0439 0.09076,-0.0138 0.09445,0.0184 0.09213,0.0526 0.0838,0.0888 0.175785,0.17013 0.295221,0.2146 0.368563,0.23377 0.39581,0.22766 0.376962,0.19626 0.312021,0.13958 0.200985,0.0576 0.04386,-0.0496 -0.03609,-0.16717 0.06136,-0.10569 0.146224,-0.0462 0.218499,0.0113 0.278185,0.0669 0.325281,0.1204 0.359787,0.17198 0.381703,0.22156 0.210148,0.13846 0.238232,0.16658 0.258087,0.18837 0.269711,0.20385 0.273104,0.213 0.268267,0.21584 0.255201,0.21235 0.233903,0.20254 0.265217,0.22925 0.230928,0.18659 0.198365,0.1449 0.167529,0.10416 0.13842,0.0644 0.111039,0.0255 0.08538,-0.0124 0.06146,-0.0493 0.12532,-0.2285 0.06457,-0.26242 0.0048,-0.29253 -0.05406,-0.31884 -0.111932,-0.34132 -0.168849,-0.36001 -0.22481,-0.37487 -0.279811,-0.38594 -0.338033,-0.43527 -0.244263,-0.33029 -0.151286,-0.23079 -0.0591,-0.13675 0.03229,-0.0482 0.12288,0.0349 0.212683,0.11252 0.30169,0.18467 0.145933,0.0895 0.139353,0.08 0.129496,0.069 0.116358,0.0565 0.09994,0.0425 0.08024,0.027 0.05727,0.01 0.03101,-0.008 0.02726,-0.0333 0.04652,-0.061 0.06325,-0.0854 0.07746,-0.1062 0.08914,-0.12354 0.09829,-0.1374 0.104919,-0.14778 0.109021,-0.15467 0.201113,-0.25374 0.222637,-0.22504 0.233998,-0.19072 0.235196,-0.15074 0.226228,-0.10514 0.207097,-0.0539 0.177802,0.003 0.138344,0.0655 0.01156,0.038 -0.01893,0.0645 -0.04688,0.0874 -0.0723,0.10685 -0.09517,0.12281 -0.115504,0.13531 -0.133299,0.14431 -0.148555,0.14984 -0.22636,0.22878 -0.176378,0.20336 -0.132498,0.19453 -0.09472,0.2023 -0.06305,0.22666 -0.03748,0.26761 -0.01801,0.32515 -0.0046,0.3993 0.03045,0.83168 0.09633,0.6075 0.169664,0.38466 0.250445,0.16317 0.338679,-0.057 0.434365,-0.27579 0.537502,-0.49327 0.648091,-0.70939 0.277995,-0.31501 0.289188,-0.31538 0.291919,-0.3073 0.286186,-0.29077 0.27199,-0.26583 0.249329,-0.23242 0.218205,-0.19059 0.178618,-0.14031 0.288661,-0.18648 0.292019,-0.15052 0.282479,-0.11194 0.260042,-0.0708 0.224706,-0.027 0.176473,0.0194 0.115342,0.0684 0.04131,0.11994 -0.0057,0.0413 -0.0164,0.0386 -0.02594,0.035 -0.03432,0.0305 -0.04155,0.0252 -0.04763,0.019 -0.05256,0.012 -0.05634,0.004 -0.0541,0.002 -0.04615,0.005 -0.0375,0.009 -0.02814,0.0115 -0.01809,0.0139 -0.0073,0.0159 0.0041,0.0176 0.01628,0.0189 0.04248,0.0128 0.07922,2.7e-4 0.111397,-0.0114 0.139006,-0.0223 0.162051,-0.0324 0.18053,-0.0416 0.194444,-0.05 0.203795,-0.0575 0.434895,-0.10364 0.440122,-0.0618 0.422943,-0.0221 0.383354,0.0156 0.321359,0.0511 0.236954,0.0845 0.130143,0.11571 9.24e-4,0.14485 -0.01685,0.0584 -0.0021,0.0642 0.0118,0.0678 0.02473,0.0695 0.03673,0.0689 0.0478,0.0663 0.05793,0.0616 0.06713,0.0548 0.181706,0.14641 0.112549,0.12919 0.04532,0.10922 -0.01999,0.0865 -0.08336,0.061 -0.144814,0.0328 -0.204338,0.002 -0.261936,-0.0319 -0.184899,-0.0279 -0.153938,-0.0147 -0.12492,-8.9e-4 -0.09785,0.0133 -0.07272,0.028 -0.04953,0.0432 -0.02829,0.0589 -0.009,0.075 -0.0066,0.0791 -0.02163,0.0589 -0.03966,0.0391 -0.06065,0.0197 -0.08459,7.5e-4 -0.111496,-0.0178 -0.141356,-0.0359 -0.174172,-0.0536 -0.338702,-0.0888 -0.266714,-0.0241 -0.19348,0.0386 -0.118996,0.0993 -0.04326,0.15802 0.03372,0.21479 0.111945,0.26955 0.191422,0.32236 0.151089,0.21574 0.14198,0.17489 0.140299,0.13856 0.146047,0.10679 0.159225,0.0795 0.179831,0.0568 0.207866,0.0386 0.243329,0.025 0.171962,0.0162 0.160426,0.0217 0.145378,0.0262 0.126819,0.0297 0.104749,0.0324 0.07917,0.0341 0.05008,0.0348 0.01747,0.0346 -0.03344,0.0461 -0.09583,0.0677 -0.151511,0.0861 -0.200468,0.10129 -0.242705,0.11318 -0.278223,0.12181 -0.307021,0.12721 -0.3291,0.12934 -0.394899,0.1588 -0.364129,0.16235 -0.333457,0.16596 -0.302881,0.16963 -0.272405,0.17335 -0.242026,0.17714 -0.211744,0.18098 -0.181562,0.18488 -0.152236,0.16046 -0.178155,0.17016 -0.197591,0.17467 -0.210545,0.174 -0.217016,0.16814 -0.217004,0.15709 -0.210509,0.14086 -0.197531,0.11943 -0.223878,0.13298 -0.186183,0.12438 -0.149647,0.11709 -0.114274,0.11109 -0.08006,0.10639 -0.04701,0.10299 -0.01512,0.10088 0.01561,0.10009 0.025,0.11216 -0.0082,0.0876 -0.05144,0.066 -0.104599,0.0472 -0.167708,0.0313 -0.240771,0.0183 -0.323791,0.008 -0.416765,8.1e-4 -0.296662,0.002 -0.305212,0.007 -0.305049,0.0113 -0.29617,0.0154 -0.278578,0.019 -0.25227,0.0221 -0.217248,0.0246 -0.173511,0.0266 -0.15398,0.0221 -0.160949,0.0116 -0.163178,0.002 -0.160672,-0.008 -0.153426,-0.0263 -0.141445,-0.0412 -0.124726,-0.0379 -0.103268,-0.0167 h 1e-6 0 10e-7 0 1e-6 l 0,0 h 0 z"
       id="path34"
       sodipodi:nodetypes="ccccccccccccccccccccccccccccccccccccccccccccccccccccccccccccccccccccccccccccccccccccccccccccccccccccccccccccccccccccccccccccccccccccccccccccccccccccccccccccccccccccccccccccccccccccccccccccccccccccccccccccccccccccccccccccccccccccccccccccccccccccccccccccccccccccccccccccccccccccccccccccccccccccccccccccccccccccccccccccccccccccccccccccccccccccccccccccccccccccccccccccccccccccccccccccccccccccccccc" />
    <path
       style="fill:#808080;stroke-width:0.2224"
       d="m 29.587571,211.17485 -0.07885,-0.2021 -0.07513,-0.15819 -0.07645,-0.11797 -0.0828,-0.0814 -0.09418,-0.0486 -0.110602,-0.0195 -0.132049,0.006 -0.15853,0.0276 -0.117108,0.0187 -0.122749,0.008 -0.124737,-0.003 -0.123075,-0.0123 -0.11776,-0.0216 -0.108795,-0.0304 -0.09618,-0.0386 -0.07991,-0.0463 -0.0933,-0.0589 -0.09231,-0.0427 -0.09337,-0.0264 -0.09648,-0.0102 -0.101622,0.006 -0.108816,0.0221 -0.118054,0.0381 -0.129337,0.0541 -0.110428,0.0427 -0.125741,0.0349 -0.13668,0.0268 -0.143239,0.0182 -0.145424,0.009 -0.143231,-2.1e-4 -0.136661,-0.01 -0.125715,-0.0203 -0.165688,-0.0297 -0.138022,-0.009 -0.115407,0.0144 -0.09784,0.0411 -0.08534,0.0709 -0.07788,0.1037 -0.07548,0.13964 -0.07812,0.17867 -0.08677,0.26051 -0.01842,0.19258 0.05281,0.12509 0.126904,0.058 0.203871,-0.009 0.283711,-0.0748 0.366421,-0.14061 0.452004,-0.20596 0.11094,-0.0534 0.110939,-0.0534 0.11094,-0.0534 0.11094,-0.0534 0.110939,-0.0534 0.11094,-0.0534 0.110939,-0.0534 0.11094,-0.0534 0.145524,0.0662 0.145524,0.0662 0.145523,0.0662 0.145524,0.0662 0.145524,0.0662 0.145524,0.0662 0.145523,0.0662 0.145524,0.0662 0.234851,0.10644 0.221009,0.0993 0.202195,0.09 0.178405,0.0785 0.149642,0.0648 0.115905,0.049 0.07719,0.031 0.03351,0.0108 0.0044,-0.0145 -0.0061,-0.0417 -0.01584,-0.0658 -0.02467,-0.0871 -0.03264,-0.1055 -0.03973,-0.12092 -0.04596,-0.13345 z"
       id="path40"
       sodipodi:nodetypes="ccccccccccccccccccccccccccccccccccccccccccccccccccccccccccccccccccccccccccccccccc" />
    <path
       style="fill:#808080;stroke-width:0.2224"
       d="m 28.338759,213.29701 0.160009,-0.0579 0.142337,-0.0414 0.127337,-0.0249 0.115008,-0.008 0.105351,0.008 0.09837,0.0245 0.09405,0.0409 0.09241,0.0574 0.06929,0.0444 0.07055,0.0364 0.06984,0.0279 0.06717,0.019 0.06252,0.01 0.05592,-1e-4 0.04734,-0.0103 0.0368,-0.021 0.0463,-0.0886 -0.0073,-0.12511 -0.05121,-0.14674 -0.08536,-0.15347 -0.109788,-0.1453 -0.12448,-0.12223 -0.129442,-0.0843 -0.12467,-0.0314 -0.06608,-0.009 -0.0904,-0.026 -0.11069,-0.0411 -0.126941,-0.0543 -0.139158,-0.0658 -0.147341,-0.0754 -0.151488,-0.0832 -0.151601,-0.0892 -0.230537,-0.13697 -0.189527,-0.10001 -0.162506,-0.0643 -0.149475,-0.0298 -0.150432,0.003 -0.16538,0.0355 -0.194316,0.0663 -0.237242,0.0959 -0.164663,0.068 -0.180444,0.0727 -0.190356,0.0752 -0.194401,0.0754 -0.192578,0.0734 -0.184889,0.0691 -0.171331,0.0626 -0.151906,0.0537 -0.13461,0.0524 -0.12176,0.0587 -0.106518,0.063 -0.08889,0.0653 -0.06886,0.0657 -0.04644,0.064 -0.02163,0.0604 0.0056,0.0547 0.172183,0.18056 0.336628,0.14844 0.459404,0.11253 0.540513,0.0728 0.579953,0.0293 0.577724,-0.018 0.533828,-0.0691 0.448263,-0.12401 v 3e-5 2e-5 3e-5 2e-5 3e-5 3e-5 2e-5 z"
       id="path36"
       sodipodi:nodetypes="ccccccccccccccccccccccccccccccccccccccccccccccccccccccccccccccccccccccccc" />
    <path
       style="fill:#808080;stroke-width:0.2224"
       d="m 27.46696,218.34839 -0.01054,-0.68801 -0.0025,-0.64571 0.005,-0.589 0.01211,-0.51787 0.01873,-0.43235 0.02488,-0.33242 0.03056,-0.21807 0.03577,-0.0893 0.175896,-0.001 0.171581,0.16635 0.161194,0.31206 0.144737,0.43565 0.122209,0.53711 0.09361,0.61645 0.05894,0.67366 0.0182,0.70876 -0.02261,0.65644 -0.05686,0.63209 -0.08625,0.58826 -0.110781,0.52497 -0.130459,0.4422 -0.14528,0.33997 -0.155245,0.21826 -0.160353,0.0771 -0.02581,-0.0697 -0.02689,-0.19977 -0.02718,-0.31583 -0.02669,-0.41788 -0.0254,-0.50593 -0.02332,-0.57996 -0.02046,-0.64 z"
       id="path32"
       sodipodi:nodetypes="ccccccccccccccccccccccccccccccccc" />
    <path
       style="fill:#666666;stroke-width:0.2224"
       d="m 26.723994,223.74479 -0.212853,-0.4102 -0.237371,-0.35289 -0.308105,-0.32802 -0.425053,-0.33559 -0.588217,-0.3756 -0.797595,-0.44804 -1.053189,-0.55292 -1.354999,-0.69024 -1.964718,-0.99789 -1.570515,-0.80918 -1.24124,-0.65791 -0.976891,-0.54408 -0.77747,-0.46772 -0.642977,-0.42878 -0.573411,-0.4273 -0.568772,-0.46327 -0.800111,-0.73125 -0.683002,-0.74726 -0.559836,-0.75102 -0.430614,-0.74259 -0.295335,-0.72193 -0.153998,-0.68906 -0.0066,-0.64395 0.146843,-0.58664 0.06852,-0.20553 0.02918,-0.173 -0.006,-0.13495 -0.03698,-0.0914 -0.0638,-0.0422 -0.08644,0.0124 -0.104905,0.0726 -0.119197,0.13835 -0.104077,0.11509 -0.10616,0.0687 -0.100927,0.0254 -0.088378,-0.0148 -0.068514,-0.0519 -0.041333,-0.0858 -0.00684,-0.11669 0.034976,-0.14445 0.03574,-0.10662 0.019114,-0.0844 0.00169,-0.0631 -0.016526,-0.0429 -0.03554,-0.0237 -0.05535,-0.005 -0.075956,0.0117 -0.097359,0.0278 -0.213391,0.05 -0.1260958,-0.0127 -0.044733,-0.0646 0.030699,-0.10552 0.1001986,-0.13553 0.1637665,-0.15461 0.2214026,-0.16278 0.2731069,-0.16001 0.637415,-0.25257 0.676047,-0.12658 0.687195,-0.007 0.670857,0.10529 0.627036,0.21118 0.555727,0.31036 0.456935,0.40284 0.330657,0.48862 0.226525,0.51459 0.120821,0.38863 0.02124,0.25953 -0.07221,0.12727 -0.159549,-0.008 -0.240757,-0.14667 -0.315843,-0.28838 -0.384806,-0.43322 -0.160876,-0.186 -0.164989,-0.17352 -0.164425,-0.15724 -0.159185,-0.13717 -0.149268,-0.1133 -0.134673,-0.0856 -0.115401,-0.0542 -0.09145,-0.0189 -0.17352,0.0522 -0.181541,0.14476 -0.179908,0.21924 -0.16862,0.27573 -0.147675,0.3142 -0.117075,0.33467 -0.07682,0.33713 -0.02691,0.32158 0.05236,0.39676 0.147086,0.45306 0.231323,0.49313 0.305067,0.51699 0.368323,0.5246 0.421086,0.51599 0.463361,0.49115 0.495143,0.45009 0.572271,0.45425 0.633825,0.45445 0.714232,0.46555 0.81349,0.48753 0.931599,0.52041 1.06856,0.56416 1.224373,0.61881 1.399037,0.68435 0.602177,0.29998 0.609925,0.32112 0.603969,0.33411 0.584304,0.33896 0.550935,0.33567 0.503858,0.32423 0.443074,0.30465 0.368585,0.27691 0.304425,0.23667 0.284304,0.20972 0.257939,0.17896 0.225329,0.14441 0.186476,0.10606 0.141378,0.0639 0.09004,0.018 0.03245,-0.0318 0.200229,-0.28894 0.546326,-0.44231 0.827199,-0.55752 1.042848,-0.63458 1.193273,-0.67348 1.278474,-0.67424 1.29845,-0.63683 1.253203,-0.56127 0.663628,-0.28643 0.656636,-0.2947 0.632587,-0.29457 0.591485,-0.28602 0.533327,-0.26905 0.458114,-0.24367 0.365846,-0.20986 0.256524,-0.16765 0.573401,-0.47831 0.484576,-0.5252 0.391891,-0.56264 0.295348,-0.59065 0.194944,-0.60921 0.09068,-0.61832 -0.01744,-0.61799 -0.129419,-0.60822 -0.198049,-0.51573 -0.240756,-0.41931 -0.278924,-0.32056 -0.312555,-0.21947 -0.341648,-0.11606 -0.366203,-0.0103 -0.386219,0.0977 -0.401699,0.20813 -0.232725,0.14118 -0.191252,0.0946 -0.151019,0.0477 -0.112025,5.2e-4 -0.07427,-0.047 -0.03776,-0.0948 -0.0025,-0.14292 0.03156,-0.19135 0.01734,-0.10347 0.0057,-0.0996 -0.0053,-0.0933 -0.01571,-0.0846 -0.02548,-0.0736 -0.03462,-0.0601 -0.04314,-0.0442 -0.05103,-0.0259 -0.0318,-0.025 0.01198,-0.0416 0.05253,-0.056 0.08983,-0.0682 0.123885,-0.0781 0.154706,-0.0858 0.182285,-0.0913 0.206624,-0.0946 0.544883,-0.20211 0.536066,-0.12523 0.525252,-0.0486 0.512443,0.0278 0.497637,0.10388 0.480835,0.17973 0.462037,0.25532 0.441244,0.33064 0.394305,0.37384 0.275166,0.33203 0.157748,0.27298 0.04205,0.19666 -0.07193,0.1031 -0.184189,-0.008 -0.294729,-0.13579 -0.403549,-0.28111 -0.07362,-0.0579 -0.07362,-0.0579 -0.07362,-0.0579 -0.07362,-0.0579 -0.07362,-0.0579 -0.07362,-0.0579 -0.07362,-0.0579 -0.07362,-0.0579 0.03706,0.0609 0.03706,0.0609 0.03706,0.0609 0.03707,0.0609 0.03706,0.0609 0.03706,0.0609 0.03706,0.0609 0.03706,0.0609 0.150789,0.39247 0.08423,0.53883 0.0217,0.64095 -0.03682,0.69881 -0.09132,0.71242 -0.141807,0.68178 -0.188271,0.60688 -0.230717,0.48773 -0.384481,0.58094 -0.420473,0.51671 -0.483172,0.47111 -0.572578,0.44415 -0.68869,0.43582 -0.83151,0.44612 -1.001037,0.47506 -1.197271,0.52262 -0.678396,0.29143 -0.679875,0.2995 -0.663112,0.29905 -0.628111,0.29007 -0.574869,0.27255 -0.503386,0.24651 -0.413664,0.21193 -0.305702,0.16883 -0.695853,0.43613 -0.694922,0.48419 -0.665681,0.50754 -0.608131,0.50619 -0.522271,0.48014 -0.408101,0.42938 -0.265621,0.35393 -0.09483,0.25378 -0.01476,0.22557 -0.04292,0.14287 -0.06904,0.0613 -0.0931,-0.0191 -0.115111,-0.0983 -0.135074,-0.17641 -0.152988,-0.25333 z"
       id="path30"
       sodipodi:nodetypes="ccccccccccccccccccccccccccccccccccccccccccccccccccccccccccccccccccccccccccccccccccccccccccccccccccccccccccccccccccccccccccccccccccccccccccccccccccccccccccccccccccccccccccccccccccccccccccccccccccccccccccccccccccccccccccccccccccccccccccccccccccccccccc" />
  </g>
</svg>
