<?xml version="1.0" encoding="UTF-8" standalone="no"?>
<svg
   xmlns:dc="http://purl.org/dc/elements/1.1/"
   xmlns:cc="http://creativecommons.org/ns#"
   xmlns:rdf="http://www.w3.org/1999/02/22-rdf-syntax-ns#"
   xmlns:svg="http://www.w3.org/2000/svg"
   xmlns="http://www.w3.org/2000/svg"
   xmlns:sodipodi="http://sodipodi.sourceforge.net/DTD/sodipodi-0.dtd"
   xmlns:inkscape="http://www.inkscape.org/namespaces/inkscape"
   width="50mm"
   height="50mm"
   viewBox="0 0 50 50"
   version="1.1"
   id="svg8"
   inkscape:version="1.0.1 (3bc2e813f5, 2020-09-07)"
   sodipodi:docname="frufru.svg">
  <defs
     id="defs2" />
  <sodipodi:namedview
     id="base"
     pagecolor="#ffffff"
     bordercolor="#666666"
     borderopacity="1.0"
     inkscape:pageopacity="0.0"
     inkscape:pageshadow="2"
     inkscape:zoom="1.979899"
     inkscape:cx="157.091"
     inkscape:cy="61.871947"
     inkscape:document-units="mm"
     inkscape:current-layer="layer1"
     inkscape:document-rotation="0"
     showgrid="false"
     inkscape:window-width="1350"
     inkscape:window-height="729"
     inkscape:window-x="0"
     inkscape:window-y="0"
     inkscape:window-maximized="0" />
  <metadata
     id="metadata5">
    <rdf:RDF>
      <cc:Work
         rdf:about="">
        <dc:format>image/svg+xml</dc:format>
        <dc:type
           rdf:resource="http://purl.org/dc/dcmitype/StillImage" />
        <dc:title></dc:title>
      </cc:Work>
    </rdf:RDF>
  </metadata>
  <g
     inkscape:label="Layer 1"
     inkscape:groupmode="layer"
     id="layer1"
     transform="translate(-3.4773812,-176.49599)">
    <path
       style="fill:#ffccaa;stroke-width:0.2224"
       d="m 33.81967,202.26759 c 0.01952,-0.0389 0.039,-0.0774 0.05821,-0.11517 0.01921,-0.0377 0.03815,-0.0747 0.05658,-0.11036 0.01843,-0.0357 0.03636,-0.0701 0.05355,-0.10293 0.01719,-0.0328 0.03364,-0.0639 0.04912,-0.0929 0.01548,-0.029 0.02998,-0.0559 0.04328,-0.0802 0.0133,-0.0243 0.0254,-0.0461 0.03605,-0.0649 0.01066,-0.0188 0.01987,-0.0346 0.02742,-0.047 0.0075,-0.0124 0.01342,-0.0213 0.01738,-0.0264 0.004,-0.005 0.01299,-0.007 0.02654,-0.006 0.01355,0.001 0.03162,0.005 0.05367,0.0123 0.02205,0.007 0.04808,0.0166 0.07756,0.0288 0.02947,0.0122 0.06239,0.0268 0.0982,0.0437 0.03581,0.0169 0.07453,0.036 0.115605,0.0571 0.04107,0.0211 0.08451,0.0442 0.129766,0.069 0.04526,0.0248 0.09233,0.0514 0.140686,0.0794 0.04836,0.028 0.09799,0.0575 0.148363,0.0882 0.128117,0.0781 0.261764,0.14906 0.39831,0.2126 0.136547,0.0635 0.275992,0.11965 0.415705,0.16799 0.139713,0.0483 0.279694,0.0889 0.417311,0.12144 0.137616,0.0325 0.272869,0.0569 0.403126,0.0729 0.130257,0.016 0.255518,0.0236 0.373152,0.0225 0.117634,-0.001 0.227642,-0.011 0.32739,-0.0299 0.09975,-0.0189 0.189238,-0.0468 0.265837,-0.0842 0.0766,-0.0373 0.140309,-0.084 0.188496,-0.14045 0.03686,-0.0431 0.06704,-0.0971 0.09084,-0.15982 0.02379,-0.0627 0.0412,-0.13403 0.05248,-0.21189 0.01128,-0.0779 0.01645,-0.16223 0.01578,-0.25093 -6.74e-4,-0.0887 -0.0072,-0.18173 -0.01927,-0.27693 -0.01208,-0.0952 -0.02973,-0.19254 -0.05266,-0.28988 -0.02293,-0.0973 -0.05116,-0.19466 -0.0844,-0.2898 -0.03324,-0.0951 -0.07149,-0.18808 -0.114482,-0.27667 -0.04299,-0.0886 -0.09072,-0.17282 -0.14291,-0.25051 -0.013,-0.0194 -0.02079,-0.0345 -0.02373,-0.0455 -0.0029,-0.011 -0.001,-0.018 0.0054,-0.0211 0.0064,-0.003 0.01737,-0.002 0.03246,0.002 0.0151,0.005 0.03436,0.0127 0.05743,0.0245 0.02307,0.0118 0.04995,0.027 0.0803,0.0457 0.03035,0.0186 0.06416,0.0406 0.101091,0.0658 0.03693,0.0252 0.07698,0.0535 0.119791,0.0849 0.04281,0.0314 0.0884,0.0657 0.136402,0.10288 0.118695,0.0919 0.232902,0.17652 0.343595,0.2542 0.110694,0.0777 0.217873,0.14843 0.322511,0.21266 0.104638,0.0642 0.206735,0.12192 0.307264,0.17348 0.100529,0.0516 0.199489,0.097 0.297855,0.13666 0.09837,0.0397 0.196136,0.0736 0.294284,0.1022 0.09815,0.0286 0.196674,0.0518 0.296551,0.0701 0.09988,0.0183 0.201105,0.0316 0.304657,0.0403 0.103552,0.009 0.209428,0.0129 0.3186,0.0129 0.07678,0 0.145874,-0.001 0.208012,-0.004 0.06214,-0.003 0.117318,-0.008 0.166258,-0.0147 0.04894,-0.007 0.09164,-0.0161 0.128825,-0.028 0.03718,-0.0119 0.06885,-0.0264 0.09571,-0.0441 0.02687,-0.0177 0.04893,-0.0386 0.06692,-0.0631 0.01799,-0.0245 0.0319,-0.0526 0.04245,-0.0849 0.01055,-0.0323 0.01775,-0.0686 0.0223,-0.10957 0.0046,-0.041 0.0065,-0.0865 0.0065,-0.13709 0,-0.0334 -0.0043,-0.0715 -0.01257,-0.11342 -0.0082,-0.0419 -0.02038,-0.0877 -0.03602,-0.13645 -0.01563,-0.0488 -0.03476,-0.10047 -0.05694,-0.15431 -0.02219,-0.0538 -0.04744,-0.10978 -0.07534,-0.16698 -0.0279,-0.0572 -0.05845,-0.11566 -0.09122,-0.17449 -0.03277,-0.0588 -0.06777,-0.11807 -0.10457,-0.17682 -0.0368,-0.0588 -0.07541,-0.11702 -0.115393,-0.17396 -0.03999,-0.0569 -0.08136,-0.11253 -0.123692,-0.16593 l -0.07697,-0.0971 -0.07697,-0.0971 -0.07697,-0.0971 -0.07697,-0.0971 -0.07697,-0.0971 -0.07697,-0.0971 -0.07697,-0.0971 -0.07697,-0.0971 0.111359,0.0562 0.11136,0.0562 0.111359,0.0562 0.11136,0.0562 0.111359,0.0562 0.111359,0.0562 0.11136,0.0562 0.111359,0.0562 c 0.139428,0.0704 0.268101,0.13004 0.38653,0.17873 0.118428,0.0487 0.226613,0.0864 0.325063,0.1131 0.09845,0.0267 0.187165,0.0422 0.266656,0.0465 0.07949,0.004 0.149759,-0.003 0.211311,-0.0209 0.06155,-0.0183 0.114391,-0.048 0.159025,-0.0893 0.04463,-0.0412 0.08106,-0.094 0.1098,-0.15854 0.02874,-0.0645 0.04978,-0.14069 0.06364,-0.22873 0.01386,-0.088 0.02053,-0.18793 0.02053,-0.29982 0,-0.12304 -0.009,-0.23626 -0.02807,-0.34035 -0.01908,-0.10408 -0.04824,-0.19903 -0.08859,-0.28552 -0.04035,-0.0865 -0.09188,-0.16451 -0.155684,-0.23476 -0.06381,-0.0702 -0.139897,-0.13271 -0.229361,-0.18807 -0.08946,-0.0554 -0.192303,-0.10362 -0.309615,-0.14546 -0.117312,-0.0418 -0.249096,-0.0772 -0.396448,-0.10691 -0.147353,-0.0297 -0.310274,-0.0536 -0.48986,-0.0724 -0.179586,-0.0188 -0.375837,-0.0326 -0.589849,-0.042 l -0.179811,-0.008 -0.179812,-0.008 -0.179811,-0.008 -0.179812,-0.008 -0.179811,-0.008 -0.179811,-0.008 -0.179812,-0.008 -0.179811,-0.008 0.08944,-0.0386 0.08945,-0.0386 0.08944,-0.0386 0.08944,-0.0386 0.08945,-0.0386 0.08944,-0.0386 0.08945,-0.0386 0.08944,-0.0386 c 0.189978,-0.0821 0.351948,-0.1822 0.486783,-0.29458 0.134835,-0.11238 0.242535,-0.23703 0.323971,-0.36813 0.08144,-0.13111 0.136609,-0.26868 0.16639,-0.40692 0.02978,-0.13823 0.03417,-0.27714 0.01404,-0.41091 -0.02013,-0.13377 -0.06478,-0.26242 -0.133071,-0.38014 -0.06829,-0.11772 -0.160237,-0.22451 -0.274953,-0.31458 -0.114716,-0.0901 -0.252207,-0.16342 -0.411601,-0.21425 -0.159394,-0.0508 -0.34069,-0.0791 -0.543017,-0.0791 -0.09822,0 -0.201679,0.0122 -0.307528,0.0346 -0.105849,0.0224 -0.21409,0.055 -0.321878,0.0959 -0.107789,0.0409 -0.215126,0.09 -0.319168,0.14536 -0.104042,0.0554 -0.204789,0.11699 -0.299396,0.18289 -0.09461,0.0659 -0.183076,0.13608 -0.262563,0.20855 -0.07949,0.0725 -0.14999,0.14724 -0.208668,0.22232 -0.05868,0.0751 -0.10553,0.15048 -0.137712,0.22421 -0.03218,0.0737 -0.0497,0.1458 -0.0497,0.21422 0,0.0529 -0.0015,0.0989 -0.0062,0.13776 -0.0047,0.0388 -0.01257,0.0705 -0.02542,0.0947 -0.01284,0.0242 -0.03064,0.0409 -0.05512,0.0499 -0.02449,0.009 -0.05566,0.0101 -0.09527,0.003 -0.03961,-0.007 -0.08765,-0.0219 -0.145863,-0.0453 -0.05821,-0.0234 -0.126598,-0.0551 -0.206896,-0.0956 -0.0803,-0.0404 -0.172509,-0.0896 -0.278372,-0.14772 -0.105864,-0.0581 -0.225381,-0.12526 -0.360291,-0.20168 -0.165915,-0.094 -0.327477,-0.17765 -0.485849,-0.2511 -0.158371,-0.0735 -0.313552,-0.13669 -0.466701,-0.18981 -0.15315,-0.0531 -0.30427,-0.0961 -0.454519,-0.12914 -0.15025,-0.033 -0.29963,-0.056 -0.449301,-0.0691 -0.149671,-0.0131 -0.299633,-0.0162 -0.451047,-0.01 -0.151415,0.007 -0.30428,0.0231 -0.459759,0.0493 -0.155479,0.0261 -0.31357,0.062 -0.475434,0.10749 -0.161865,0.0455 -0.327503,0.10056 -0.498075,0.16514 l -0.141843,0.0537 -0.141843,0.0537 -0.141843,0.0537 -0.141844,0.0537 -0.141843,0.0537 -0.141843,0.0537 -0.141843,0.0537 -0.141843,0.0537 -0.07894,-0.0803 -0.07894,-0.0803 -0.07894,-0.0803 -0.07894,-0.0803 -0.07894,-0.0803 -0.07894,-0.0803 -0.07894,-0.0803 -0.07894,-0.0803 c -0.144642,-0.14714 -0.302881,-0.2836 -0.472633,-0.40888 -0.169752,-0.12529 -0.351016,-0.23938 -0.541708,-0.34179 -0.190692,-0.10241 -0.390812,-0.19312 -0.598276,-0.27164 -0.207463,-0.0785 -0.42227,-0.14483 -0.642335,-0.19845 -0.220066,-0.0536 -0.44539,-0.0945 -0.673889,-0.12221 -0.228499,-0.0277 -0.460173,-0.0422 -0.692936,-0.0429 -0.232764,-7.6e-4 -0.466618,0.0122 -0.699477,0.0394 -0.23286,0.0272 -0.464725,0.0686 -0.693512,0.12479 -0.08779,0.0215 -0.165568,0.04 -0.234704,0.0547 -0.06914,0.0147 -0.129633,0.0257 -0.182866,0.0324 -0.05323,0.007 -0.0992,0.009 -0.139283,0.007 -0.04008,-0.003 -0.07427,-0.01 -0.103955,-0.023 -0.02968,-0.013 -0.05485,-0.0315 -0.07688,-0.0561 -0.02203,-0.0246 -0.04093,-0.0554 -0.05807,-0.0928 -0.01714,-0.0375 -0.03251,-0.0816 -0.0475,-0.13315 -0.01499,-0.0515 -0.0296,-0.11033 -0.04519,-0.17709 -0.02264,-0.0969 -0.06754,-0.19214 -0.132074,-0.28459 -0.06453,-0.0924 -0.148685,-0.18212 -0.24984,-0.26793 -0.101155,-0.0858 -0.219308,-0.16774 -0.351828,-0.24471 -0.13252,-0.077 -0.279409,-0.14897 -0.438035,-0.21493 -0.158626,-0.066 -0.328989,-0.12584 -0.508461,-0.17858 -0.179472,-0.0528 -0.368051,-0.0983 -0.563108,-0.13569 -0.195057,-0.0373 -0.396592,-0.0664 -0.601975,-0.0862 -0.205382,-0.0198 -0.414613,-0.0302 -0.625061,-0.0302 -0.123309,0 -0.234718,-9.5e-4 -0.335065,-0.003 -0.100346,-0.002 -0.189632,-0.005 -0.268694,-0.0102 -0.07906,-0.005 -0.147904,-0.0109 -0.207361,-0.0187 -0.05946,-0.008 -0.109532,-0.0172 -0.151063,-0.0285 -0.04153,-0.0113 -0.07452,-0.0244 -0.0998,-0.0397 -0.02528,-0.0152 -0.04286,-0.0326 -0.05357,-0.0523 -0.01071,-0.0197 -0.01456,-0.0417 -0.01238,-0.0662 0.0022,-0.0245 0.01038,-0.0516 0.02377,-0.0815 0.02041,-0.0455 0.02347,-0.0892 0.01113,-0.13057 -0.01234,-0.0414 -0.04008,-0.0803 -0.08125,-0.11648 -0.04117,-0.0361 -0.09578,-0.0694 -0.161856,-0.0993 -0.06608,-0.0299 -0.143634,-0.0564 -0.230701,-0.0791 -0.08707,-0.0226 -0.183647,-0.0414 -0.287779,-0.0558 -0.104132,-0.0144 -0.215817,-0.0244 -0.333092,-0.0295 -0.117275,-0.005 -0.240141,-0.005 -0.366637,-5e-5 -0.126497,0.005 -0.256623,0.0159 -0.388418,0.0324 l -0.09016,0.0113 -0.09016,0.0113 -0.09016,0.0113 -0.09016,0.0113 -0.09016,0.0113 -0.09016,0.0113 -0.09016,0.0113 -0.09016,0.0113 0.065,-0.0592 0.065,-0.0592 0.065,-0.0592 0.065,-0.0592 0.065,-0.0592 0.065,-0.0592 0.065,-0.0592 0.065,-0.0592 c 0.06273,-0.0572 0.117648,-0.10751 0.164874,-0.15216 0.04723,-0.0447 0.08676,-0.0836 0.1187,-0.11799 0.03195,-0.0344 0.05631,-0.0641 0.07319,-0.0904 0.01689,-0.0263 0.0263,-0.0491 0.02835,-0.0695 0.002,-0.0204 -0.0033,-0.0384 -0.01583,-0.0552 -0.01257,-0.0167 -0.03239,-0.0322 -0.05935,-0.0475 -0.02696,-0.0153 -0.06107,-0.0304 -0.102204,-0.0464 -0.04114,-0.016 -0.0893,-0.033 -0.144391,-0.0519 -0.0314,-0.0108 -0.07025,-0.0214 -0.115445,-0.0316 -0.0452,-0.0102 -0.09674,-0.0202 -0.153529,-0.0296 -0.05679,-0.009 -0.118814,-0.0185 -0.184976,-0.0269 -0.06616,-0.008 -0.136459,-0.0164 -0.209785,-0.0236 -0.07333,-0.007 -0.149681,-0.0138 -0.227958,-0.0196 -0.07828,-0.006 -0.158477,-0.0108 -0.239493,-0.0149 -0.08102,-0.004 -0.162848,-0.007 -0.24439,-0.01 -0.08154,-0.002 -0.162795,-0.004 -0.242651,-0.004 -0.126237,-2.5e-4 -0.240496,9e-4 -0.344988,0.004 -0.104492,0.003 -0.199219,0.009 -0.286393,0.0174 -0.08717,0.009 -0.166796,0.02 -0.241079,0.0353 -0.07428,0.0153 -0.143227,0.0344 -0.209046,0.058 -0.06582,0.0237 -0.128512,0.0519 -0.190294,0.0855 -0.06178,0.0336 -0.122652,0.0726 -0.184823,0.11775 -0.06217,0.0452 -0.125645,0.0965 -0.192633,0.15479 -0.06699,0.0583 -0.137493,0.12357 -0.213725,0.1966 -0.0996,0.0954 -0.188238,0.19049 -0.266029,0.28612 -0.07779,0.0956 -0.144735,0.19181 -0.200945,0.28942 -0.05621,0.0976 -0.101686,0.19665 -0.136542,0.29801 -0.03486,0.10136 -0.05909,0.20503 -0.07282,0.31191 -0.01373,0.10688 -0.01695,0.21696 -0.0098,0.33113 0.0072,0.11416 0.02473,0.23241 0.05258,0.35563 0.02784,0.12322 0.06597,0.25141 0.114252,0.38546 0.04829,0.13404 0.106741,0.27394 0.175247,0.42058 l 0.04467,0.0956 0.04467,0.0956 0.04467,0.0956 0.04467,0.0956 0.04467,0.0956 0.04467,0.0956 0.04467,0.0956 0.04467,0.0956 -0.08912,-0.0884 -0.08912,-0.0884 -0.08912,-0.0884 -0.08912,-0.0884 -0.08912,-0.0884 -0.08912,-0.0884 -0.08912,-0.0884 -0.08912,-0.0884 c -0.168492,-0.16714 -0.314261,-0.29585 -0.437685,-0.39013 -0.123424,-0.0943 -0.224504,-0.15413 -0.303619,-0.18355 -0.07911,-0.0294 -0.136266,-0.0284 -0.17183,-9.8e-4 -0.03557,0.0274 -0.04954,0.0813 -0.04232,0.15755 0.0072,0.0763 0.03566,0.17495 0.08492,0.29205 0.04926,0.1171 0.119345,0.25261 0.209878,0.40253 0.09053,0.14992 0.201513,0.31425 0.332561,0.48898 0.131047,0.17473 0.282163,0.35987 0.452966,0.5514 l 0.101546,0.11387 0.101547,0.11388 0.101546,0.11387 0.101547,0.11387 0.101546,0.11387 0.101546,0.11388 0.101547,0.11387 0.101546,0.11387 -0.148834,-0.0151 -0.148834,-0.0151 -0.148834,-0.0151 -0.148834,-0.0151 -0.148835,-0.0151 -0.148834,-0.0151 -0.148834,-0.0151 -0.148834,-0.0151 c -0.133514,-0.0135 -0.252254,-0.0249 -0.357827,-0.0338 -0.105573,-0.009 -0.197979,-0.0152 -0.278825,-0.0187 -0.08085,-0.003 -0.150134,-0.004 -0.20947,-0.001 -0.05934,0.003 -0.108718,0.009 -0.149756,0.0184 -0.04104,0.01 -0.07373,0.023 -0.09969,0.0403 -0.02596,0.0173 -0.04518,0.0387 -0.05927,0.0645 -0.01409,0.0258 -0.02305,0.056 -0.02849,0.091 -0.0054,0.035 -0.0074,0.0748 -0.0074,0.11971 0,0.0276 0.0021,0.0567 0.0061,0.0871 0.004,0.0303 0.0099,0.0618 0.01758,0.0938 0.0076,0.0321 0.01696,0.0648 0.02779,0.0977 0.01083,0.0329 0.02315,0.0659 0.03677,0.0985 0.01362,0.0327 0.02852,0.065 0.04452,0.0964 0.01599,0.0315 0.03307,0.0621 0.05103,0.0914 0.01796,0.0293 0.0368,0.0573 0.05631,0.0834 0.01951,0.0261 0.0397,0.0505 0.06036,0.0724 0.07652,0.0815 0.180887,0.17416 0.305967,0.274 0.125079,0.0999 0.270873,0.20684 0.430253,0.3169 0.15938,0.11007 0.332347,0.2232 0.511771,0.33532 0.179425,0.11212 0.365307,0.22323 0.550519,0.32925 0.185212,0.10601 0.369754,0.20694 0.546497,0.29869 0.176743,0.0918 0.345688,0.17434 0.499705,0.24367 0.154018,0.0693 0.293109,0.12541 0.410144,0.16415 0.117036,0.0387 0.212016,0.0602 0.277813,0.0602 0.06164,0 0.116227,-0.001 0.164404,-0.005 0.04818,-0.004 0.08994,-0.01 0.12592,-0.0196 0.03598,-0.01 0.06617,-0.0232 0.09121,-0.0415 0.02504,-0.0183 0.04493,-0.0413 0.06029,-0.0705 0.01536,-0.0291 0.0262,-0.0643 0.03315,-0.10666 0.0069,-0.0424 0.01,-0.092 0.0098,-0.15001 -2.13e-4,-0.058 -0.0037,-0.12446 -0.0098,-0.20052 -0.0061,-0.076 -0.01485,-0.16172 -0.0256,-0.2582 -0.0092,-0.0827 -0.01673,-0.15673 -0.02246,-0.22246 -0.0057,-0.0657 -0.0097,-0.12313 -0.0117,-0.17253 -0.002,-0.0494 -0.0022,-0.0908 -3.46e-4,-0.12447 0.0018,-0.0337 0.0057,-0.0597 0.01161,-0.0783 0.0059,-0.0186 0.01395,-0.0299 0.02416,-0.034 0.01021,-0.004 0.02262,-0.001 0.03731,0.008 0.0147,0.01 0.03168,0.0261 0.05106,0.0489 0.01938,0.0229 0.04115,0.0522 0.06541,0.0876 0.06626,0.0968 0.138107,0.19394 0.214372,0.29041 0.07626,0.0965 0.156952,0.19227 0.240905,0.28635 0.08395,0.0941 0.171173,0.18645 0.260504,0.27606 0.08933,0.0896 0.180771,0.17648 0.273166,0.25954 0.09239,0.0831 0.185745,0.16234 0.278894,0.23678 0.09315,0.0744 0.186096,0.14404 0.277686,0.20778 0.09159,0.0637 0.181823,0.1216 0.269543,0.17255 0.08772,0.051 0.172927,0.095 0.254465,0.13109 0.117844,0.0522 0.263573,0.0976 0.429176,0.13638 0.165603,0.0388 0.351081,0.0709 0.548422,0.0963 0.197342,0.0254 0.406547,0.0442 0.619605,0.0565 0.213059,0.0122 0.42997,0.0178 0.642724,0.0168 0.212754,-9.7e-4 0.421351,-0.009 0.617779,-0.0226 0.196428,-0.0141 0.380688,-0.0347 0.54477,-0.0618 0.164081,-0.0271 0.307984,-0.0607 0.423697,-0.10074 0.115713,-0.0401 0.203237,-0.0866 0.254561,-0.13949 0.02132,-0.022 0.04531,-0.0449 0.07144,-0.0684 0.02613,-0.0235 0.0544,-0.0476 0.0843,-0.0719 0.0299,-0.0243 0.06142,-0.0489 0.09405,-0.0733 0.03263,-0.0244 0.06637,-0.0487 0.100698,-0.0725 0.03433,-0.0238 0.06925,-0.0471 0.104238,-0.0695 0.03499,-0.0224 0.07005,-0.044 0.10467,-0.0644 0.03462,-0.0204 0.06879,-0.0395 0.101996,-0.0571 0.03321,-0.0176 0.06545,-0.0336 0.09621,-0.0477 0.05263,-0.0241 0.09865,-0.0447 0.137985,-0.0608 0.03933,-0.0161 0.07199,-0.0277 0.0979,-0.034 0.02591,-0.006 0.04507,-0.007 0.05742,-0.002 0.01235,0.005 0.01789,0.0172 0.01656,0.0362 -0.0013,0.019 -0.0095,0.0452 -0.02469,0.0796 -0.01515,0.0344 -0.03724,0.0769 -0.06634,0.12855 -0.0291,0.0516 -0.0652,0.11233 -0.108369,0.18303 -0.04317,0.0707 -0.09341,0.15142 -0.150791,0.24305 -0.07759,0.12392 -0.145365,0.23487 -0.203177,0.33552 -0.05781,0.10065 -0.105666,0.191 -0.143427,0.27372 -0.03776,0.0827 -0.06543,0.15784 -0.08287,0.22801 -0.01744,0.0702 -0.02466,0.13539 -0.02152,0.19835 0.0031,0.063 0.01664,0.12366 0.04064,0.18477 0.02399,0.0611 0.05848,0.12264 0.103594,0.18726 0.04511,0.0646 0.100853,0.13233 0.167353,0.20581 0.0665,0.0735 0.143761,0.15274 0.231915,0.24044 0.06676,0.0664 0.127946,0.12524 0.186854,0.17729 0.05891,0.0521 0.115542,0.0973 0.173206,0.1367 0.05767,0.0394 0.116362,0.0728 0.179396,0.10112 0.06303,0.0283 0.130406,0.0516 0.205421,0.0706 0.07502,0.019 0.157675,0.0337 0.251284,0.045 0.09361,0.0113 0.198169,0.0192 0.316984,0.0245 0.118815,0.005 0.251886,0.008 0.40252,0.009 0.150633,9.8e-4 0.318829,2.2e-4 0.507893,-0.001 0.247019,-0.002 0.486124,-0.01 0.715436,-0.0228 0.229312,-0.0128 0.448831,-0.0308 0.656678,-0.0533 0.207848,-0.0225 0.404024,-0.0497 0.58665,-0.0809 0.182626,-0.0313 0.351701,-0.0666 0.505348,-0.10569 0.153647,-0.039 0.291866,-0.0817 0.412776,-0.1276 0.120911,-0.0459 0.224514,-0.0949 0.308932,-0.14666 0.08442,-0.0517 0.149648,-0.10618 0.193814,-0.16284 0.04417,-0.0567 0.06727,-0.11554 0.06743,-0.17617 6e-5,-0.0274 0.0027,-0.0497 0.0078,-0.067 0.0051,-0.0173 0.01272,-0.0296 0.02274,-0.0368 0.01001,-0.007 0.02244,-0.01 0.03719,-0.007 0.01475,0.003 0.03183,0.0102 0.05116,0.0226 0.01933,0.0124 0.04091,0.0297 0.06465,0.0518 0.02375,0.0221 0.04966,0.049 0.07766,0.0807 0.028,0.0317 0.0581,0.0682 0.0902,0.10938 0.0321,0.0412 0.06621,0.0871 0.102244,0.13769 0.08847,0.12419 0.180633,0.24116 0.276239,0.35077 0.09561,0.10961 0.194658,0.21187 0.296916,0.30664 0.102258,0.0948 0.207721,0.18205 0.316149,0.2617 0.108429,0.0796 0.219822,0.15167 0.333939,0.21593 0.114118,0.0643 0.23096,0.12077 0.350285,0.16937 0.119325,0.0486 0.241134,0.0893 0.365186,0.12199 0.124052,0.0327 0.250347,0.0573 0.378645,0.0738 0.128297,0.0165 0.258597,0.0248 0.390658,0.0248 0.09877,0 0.188122,-0.001 0.269348,-0.005 0.08123,-0.003 0.15432,-0.009 0.220562,-0.0164 0.06624,-0.008 0.12563,-0.0182 0.179444,-0.0317 0.05381,-0.0135 0.102052,-0.0302 0.145994,-0.0506 0.04394,-0.0204 0.08359,-0.0446 0.120211,-0.073 0.03663,-0.0285 0.07023,-0.0613 0.102097,-0.099 0.03187,-0.0377 0.06199,-0.0804 0.09165,-0.12859 0.02966,-0.0482 0.05886,-0.10189 0.08887,-0.16171 l 1e-6,-1e-5 10e-7,0 10e-7,-1e-5 1e-6,-1e-5 0,-1e-5 10e-7,0 10e-7,-1e-5 z"
       id="path48"
       sodipodi:nodetypes="ccccccccccccccccccccccccccccccccccccccccccccccccccccccccccccccccccccccccccccccccccccccccccccccccccccccccccccccccccccccccccccccccccccccccccccccccccccccccccccccccccccccccccccccccccccccccccccccccccccccccccccccccccccccccccccccccccccccccccccccccccccccccccccccccccccccccccccccccccccccccccccccccccccccccccccccccccccccccccccccccccccccccccccccccccccccccccccccccccccccccccccccccccccccccccccccccccccccccccccccccccccccccccccccccc" />
    <path
       style="fill:#ffccaa;stroke-width:0.2224"
       d="m 47.556638,205.25113 c -0.0079,-0.0265 -0.0071,-0.0602 -0.001,-0.0993 0.0061,-0.0392 0.01749,-0.0837 0.03071,-0.13192 0.01322,-0.0482 0.02828,-0.0999 0.0417,-0.15346 0.01343,-0.0535 0.02523,-0.10878 0.03195,-0.16396 0.0067,-0.0552 0.01282,-0.11161 0.01822,-0.16847 0.0054,-0.0569 0.01009,-0.11412 0.01396,-0.17099 0.0039,-0.0569 0.0069,-0.11332 0.0091,-0.16852 0.0022,-0.0552 0.0034,-0.10918 0.0036,-0.16107 8.5e-4,-0.1939 0.0065,-0.36404 0.01669,-0.51039 0.01022,-0.14636 0.02503,-0.26894 0.04426,-0.36771 0.01923,-0.0988 0.04288,-0.17376 0.07078,-0.22492 0.02789,-0.0512 0.06003,-0.0785 0.09624,-0.082 0.0362,-0.004 0.07647,0.0168 0.120637,0.061 0.04416,0.0442 0.09222,0.11218 0.143984,0.20407 0.05177,0.0919 0.10725,0.20762 0.166272,0.34726 0.05902,0.13963 0.121581,0.30314 0.187504,0.49056 0.03449,0.0981 0.07019,0.19447 0.106542,0.28818 0.03636,0.0937 0.07337,0.18473 0.110519,0.27202 0.03715,0.0873 0.07442,0.17086 0.11128,0.24968 0.03686,0.0788 0.07332,0.15288 0.108828,0.22116 0.03551,0.0683 0.07008,0.13077 0.103162,0.18646 0.03308,0.0557 0.06469,0.10455 0.09428,0.14557 0.02959,0.041 0.05716,0.0742 0.08219,0.0985 0.02502,0.0243 0.04749,0.0397 0.06688,0.0453 0.01938,0.006 0.04184,0.006 0.06685,0.002 0.025,-0.004 0.05254,-0.0124 0.0821,-0.0249 0.02955,-0.0126 0.06111,-0.0292 0.09414,-0.0496 0.03303,-0.0204 0.06753,-0.0444 0.102973,-0.0718 0.03544,-0.0273 0.07182,-0.058 0.108599,-0.0915 0.03678,-0.0335 0.07397,-0.0699 0.111018,-0.1087 0.03705,-0.0388 0.07397,-0.0801 0.110228,-0.12345 0.03625,-0.0433 0.07184,-0.0887 0.106232,-0.13572 0.05246,-0.0717 0.09939,-0.14008 0.141199,-0.20732 0.04181,-0.0672 0.07849,-0.13337 0.110472,-0.20063 0.03198,-0.0673 0.05925,-0.13565 0.08222,-0.20742 0.02297,-0.0718 0.04164,-0.14694 0.05643,-0.22774 0.01479,-0.0808 0.02569,-0.16722 0.03311,-0.26153 0.0074,-0.0943 0.01138,-0.1965 0.01227,-0.30883 8.9e-4,-0.11233 -0.0013,-0.23479 -0.0061,-0.36963 -0.0048,-0.13485 -0.0123,-0.28207 -0.02201,-0.44393 -0.0064,-0.1061 -0.01396,-0.21267 -0.02258,-0.3184 -0.0086,-0.10572 -0.01827,-0.21059 -0.02876,-0.31327 -0.01048,-0.10268 -0.0218,-0.20317 -0.03375,-0.30014 -0.01195,-0.097 -0.02454,-0.1904 -0.03757,-0.27897 -0.01303,-0.0886 -0.02649,-0.17229 -0.04021,-0.2498 -0.01371,-0.0775 -0.02766,-0.14882 -0.04166,-0.2126 -0.014,-0.0638 -0.02805,-0.12002 -0.04194,-0.1674 -0.0139,-0.0474 -0.02764,-0.0859 -0.04104,-0.11416 -0.01448,-0.0306 -0.0213,-0.0541 -0.02086,-0.0708 4.41e-4,-0.0167 0.0081,-0.0266 0.02272,-0.03 0.01457,-0.003 0.03602,-3e-5 0.06394,0.01 0.02792,0.01 0.06233,0.0257 0.102822,0.0479 0.04049,0.0222 0.08707,0.0506 0.139351,0.085 0.05228,0.0343 0.110252,0.0746 0.173532,0.12067 0.06328,0.046 0.131866,0.0978 0.205366,0.15512 0.0735,0.0573 0.151913,0.12013 0.234849,0.18827 0.101353,0.0833 0.194814,0.15851 0.280774,0.22594 0.08596,0.0674 0.164419,0.12703 0.235764,0.17902 0.07135,0.052 0.135579,0.0963 0.193088,0.13326 0.05751,0.0369 0.108295,0.0664 0.152747,0.0887 0.04445,0.0223 0.08257,0.0373 0.114739,0.0453 0.03217,0.008 0.0584,0.009 0.07907,0.003 0.02067,-0.006 0.03578,-0.0187 0.04573,-0.038 0.0099,-0.0194 0.01472,-0.0454 0.01472,-0.078 0,-0.1561 -0.02845,-0.32264 -0.08181,-0.49589 -0.05336,-0.17325 -0.131618,-0.3532 -0.231232,-0.53612 -0.09961,-0.18293 -0.220578,-0.36882 -0.359346,-0.55394 -0.138768,-0.18512 -0.295337,-0.36947 -0.466158,-0.54931 -0.17082,-0.17984 -0.355892,-0.35518 -0.551664,-0.52226 -0.195772,-0.16709 -0.402244,-0.32593 -0.615866,-0.47278 -0.213622,-0.14686 -0.434394,-0.28173 -0.658764,-0.40088 -0.224371,-0.11914 -0.45234,-0.22257 -0.680358,-0.30653 -0.11447,-0.0421 -0.218283,-0.0816 -0.311827,-0.1187 -0.09354,-0.0371 -0.176819,-0.0718 -0.250212,-0.1043 -0.07339,-0.0326 -0.136904,-0.063 -0.190919,-0.0916 -0.05402,-0.0286 -0.09854,-0.0553 -0.133949,-0.0804 -0.03541,-0.0251 -0.06172,-0.0487 -0.0793,-0.071 -0.01758,-0.0223 -0.02644,-0.0432 -0.02697,-0.0632 -5.28e-4,-0.0199 0.0073,-0.0389 0.02303,-0.057 0.01575,-0.0182 0.03945,-0.0356 0.07071,-0.0525 0.02323,-0.0126 0.04899,-0.0249 0.07675,-0.0368 0.02776,-0.0119 0.05753,-0.0235 0.08876,-0.0345 0.03124,-0.011 0.06395,-0.0215 0.0976,-0.0314 0.03366,-0.01 0.06825,-0.0191 0.10327,-0.0275 0.03502,-0.008 0.07045,-0.0161 0.105769,-0.0229 0.03532,-0.007 0.07053,-0.0126 0.105099,-0.0175 0.03457,-0.005 0.0685,-0.009 0.10126,-0.0113 0.03276,-0.003 0.06435,-0.004 0.09425,-0.004 0.0299,-2.5e-4 0.05807,-0.002 0.08432,-0.005 0.02625,-0.003 0.05059,-0.007 0.0728,-0.0127 0.02222,-0.005 0.04232,-0.012 0.06011,-0.0196 0.01779,-0.008 0.03327,-0.0162 0.04624,-0.0256 0.01297,-0.009 0.02344,-0.0198 0.0312,-0.0308 0.0078,-0.0111 0.01282,-0.0228 0.01499,-0.0352 0.0022,-0.0124 0.0014,-0.0253 -0.0024,-0.0387 -0.0038,-0.0134 -0.01075,-0.0272 -0.02097,-0.0414 -0.03225,-0.0447 -0.08694,-0.0818 -0.159127,-0.11175 -0.07219,-0.03 -0.161891,-0.0527 -0.264165,-0.0687 -0.102275,-0.016 -0.217125,-0.0251 -0.339622,-0.0279 -0.122496,-0.003 -0.252638,0.001 -0.385496,0.0108 -0.132858,0.01 -0.268431,0.0257 -0.401789,0.0473 -0.133358,0.0216 -0.264502,0.0489 -0.3885,0.0816 -0.123998,0.0327 -0.240851,0.0707 -0.345629,0.11373 -0.104778,0.043 -0.19748,0.091 -0.273177,0.14367 -0.06334,0.044 -0.11966,0.0857 -0.169662,0.12737 -0.05,0.0417 -0.09369,0.0834 -0.131762,0.12765 -0.03808,0.0442 -0.07054,0.091 -0.09811,0.14267 -0.02757,0.0517 -0.05023,0.10835 -0.06871,0.17241 -0.01847,0.0641 -0.03275,0.13555 -0.04355,0.2169 -0.0108,0.0813 -0.01811,0.17256 -0.02264,0.2761 -0.0045,0.10354 -0.0063,0.2194 -0.006,0.35004 3.11e-4,0.13064 0.0027,0.27606 0.0064,0.43872 0.0023,0.10019 0.0039,0.19809 0.0048,0.29273 9.34e-4,0.0946 0.0012,0.186 8.46e-4,0.27309 -3.56e-4,0.0871 -0.0013,0.16991 -0.0029,0.24747 -0.0016,0.0776 -0.0037,0.14985 -0.0064,0.21589 -0.0027,0.066 -0.0059,0.1258 -0.0097,0.17831 -0.0037,0.0525 -0.008,0.0978 -0.01268,0.13476 -0.0047,0.037 -0.0099,0.0658 -0.01545,0.0853 -0.0056,0.0195 -0.01159,0.0297 -0.01798,0.0297 -0.0064,0 -0.01926,-0.005 -0.03789,-0.0149 -0.01864,-0.01 -0.04305,-0.0241 -0.07252,-0.0426 -0.02947,-0.0185 -0.06401,-0.0411 -0.1029,-0.0674 -0.03889,-0.0263 -0.08214,-0.0561 -0.129036,-0.0891 -0.0469,-0.033 -0.09744,-0.0692 -0.150928,-0.10793 -0.05349,-0.0388 -0.109913,-0.0802 -0.168573,-0.12371 -0.05866,-0.0435 -0.119555,-0.0892 -0.181975,-0.13652 -0.06242,-0.0473 -0.126366,-0.0963 -0.191131,-0.14634 -0.06476,-0.0501 -0.128846,-0.0979 -0.191523,-0.14302 -0.06268,-0.0451 -0.12395,-0.0876 -0.183098,-0.12701 -0.05915,-0.0394 -0.116171,-0.0758 -0.170349,-0.10867 -0.05418,-0.0329 -0.10551,-0.0624 -0.153276,-0.088 -0.04777,-0.0256 -0.09197,-0.0474 -0.131881,-0.065 -0.03991,-0.0176 -0.07554,-0.031 -0.10616,-0.0397 -0.03062,-0.009 -0.05623,-0.0129 -0.07612,-0.0121 -0.01989,8.2e-4 -0.03404,0.007 -0.04175,0.0178 -0.03449,0.05 -0.06713,0.11185 -0.09756,0.18281 -0.03043,0.071 -0.05865,0.15107 -0.0843,0.2377 -0.02565,0.0866 -0.04874,0.1798 -0.06889,0.27686 -0.02016,0.097 -0.03739,0.19801 -0.05133,0.30024 -0.01395,0.10223 -0.02461,0.20573 -0.03162,0.30788 -0.007,0.10215 -0.01039,0.20294 -0.0098,0.29976 6.26e-4,0.0968 0.0053,0.18965 0.01424,0.27588 0.009,0.0862 0.02233,0.16585 0.04039,0.23625 0.02059,0.0802 0.04541,0.15379 0.0731,0.22 0.02769,0.0662 0.05824,0.12508 0.09027,0.17592 0.03203,0.0508 0.06554,0.0936 0.09914,0.12774 0.0336,0.0341 0.0673,0.0595 0.09972,0.0755 0.03241,0.016 0.06354,0.0226 0.092,0.0191 0.02846,-0.003 0.05425,-0.017 0.07598,-0.0413 0.02174,-0.0243 0.03942,-0.0594 0.05167,-0.10588 0.01225,-0.0465 0.01907,-0.10446 0.01907,-0.17453 0,-0.0221 0.0017,-0.0427 0.0049,-0.0619 0.0032,-0.0191 0.008,-0.0367 0.01406,-0.0527 0.0061,-0.016 0.01357,-0.0302 0.02223,-0.0427 0.0087,-0.0125 0.01852,-0.0232 0.02941,-0.032 0.01089,-0.009 0.02282,-0.0156 0.03561,-0.0204 0.01279,-0.005 0.02646,-0.008 0.04082,-0.008 0.01437,-5.5e-4 0.02944,0.001 0.04505,0.005 0.01561,0.004 0.03176,0.0103 0.04829,0.019 0.01653,0.009 0.03268,0.0197 0.04829,0.0326 0.01561,0.0129 0.03069,0.0277 0.04506,0.0442 0.01437,0.0164 0.02804,0.0345 0.04084,0.0538 0.0128,0.0193 0.02473,0.0399 0.03564,0.0614 0.0109,0.0215 0.02077,0.044 0.02944,0.0671 0.0087,0.0231 0.01615,0.0468 0.02226,0.0709 0.0061,0.024 0.01087,0.0483 0.0141,0.0726 0.0032,0.0243 0.0049,0.0486 0.0049,0.0725 3e-5,0.0693 0.02139,0.16613 0.06002,0.28367 0.03864,0.11755 0.09455,0.25579 0.163696,0.40784 0.06914,0.15206 0.151518,0.31794 0.243073,0.49075 0.09156,0.17282 0.192292,0.35258 0.29816,0.5324 0.105868,0.17982 0.216869,0.35971 0.328953,0.53278 0.112083,0.17308 0.225251,0.33934 0.335452,0.49191 0.110202,0.15258 0.217438,0.29146 0.31766,0.40978 0.100222,0.11832 0.19343,0.21608 0.275574,0.28639 0.09261,0.0793 0.177763,0.1488 0.256247,0.20863 0.07848,0.0598 0.150295,0.10997 0.216214,0.15043 0.06592,0.0405 0.125947,0.0713 0.180862,0.0924 0.05491,0.0212 0.104717,0.0327 0.150186,0.0346 0.04547,0.002 0.09707,-0.009 0.147723,-0.0301 0.05066,-0.0212 0.100376,-0.0527 0.142093,-0.0922 0.04172,-0.0395 0.07543,-0.087 0.09408,-0.14 0.01865,-0.0531 0.02223,-0.11168 0.0037,-0.1735 l 0,0 -10e-7,0 0,0 0,-1e-5 -1e-6,0 0,0 -10e-7,0 z"
       id="path46"
       sodipodi:nodetypes="ccccccccccccccccccccccccccccccccccccccccccccccccccccccccccccccccccccccccccccccccccccccccccccccccccccccccccccccccccccccccccccccccccccccccccccccccccccccccccccccccccccccccccccccccccccccccccccccccc" />
  </g>
</svg>
