<?xml version="1.0" encoding="UTF-8" standalone="no"?>
<svg
   xmlns:dc="http://purl.org/dc/elements/1.1/"
   xmlns:cc="http://creativecommons.org/ns#"
   xmlns:rdf="http://www.w3.org/1999/02/22-rdf-syntax-ns#"
   xmlns:svg="http://www.w3.org/2000/svg"
   xmlns="http://www.w3.org/2000/svg"
   xmlns:sodipodi="http://sodipodi.sourceforge.net/DTD/sodipodi-0.dtd"
   xmlns:inkscape="http://www.inkscape.org/namespaces/inkscape"
   width="50mm"
   height="50mm"
   viewBox="0 0 50 50"
   version="1.1"
   id="svg8"
   inkscape:version="1.0.1 (3bc2e813f5, 2020-09-07)"
   sodipodi:docname="LED.svg">
  <defs
     id="defs2" />
  <sodipodi:namedview
     id="base"
     pagecolor="#ffffff"
     bordercolor="#666666"
     borderopacity="1.0"
     inkscape:pageopacity="0.0"
     inkscape:pageshadow="2"
     inkscape:zoom="1.979899"
     inkscape:cx="157.091"
     inkscape:cy="61.871947"
     inkscape:document-units="mm"
     inkscape:current-layer="layer1"
     inkscape:document-rotation="0"
     showgrid="false"
     inkscape:window-width="1350"
     inkscape:window-height="729"
     inkscape:window-x="0"
     inkscape:window-y="0"
     inkscape:window-maximized="0" />
  <metadata
     id="metadata5">
    <rdf:RDF>
      <cc:Work
         rdf:about="">
        <dc:format>image/svg+xml</dc:format>
        <dc:type
           rdf:resource="http://purl.org/dc/dcmitype/StillImage" />
        <dc:title></dc:title>
      </cc:Work>
    </rdf:RDF>
  </metadata>
  <g
     inkscape:label="Layer 1"
     inkscape:groupmode="layer"
     id="layer1"
     transform="translate(-3.4773812,-176.49599)">
    <path
       style="fill:#ffccaa;stroke-width:0.2224"
       d="m 33.81967,202.26759 0.05821,-0.11517 0.05658,-0.11036 0.05355,-0.10293 0.04912,-0.0929 0.04328,-0.0802 0.03605,-0.0649 0.02742,-0.047 0.01738,-0.0264 0.02654,-0.006 0.05367,0.0123 0.07756,0.0288 0.0982,0.0437 0.115605,0.0571 0.129766,0.069 0.140686,0.0794 0.148363,0.0882 0.39831,0.2126 0.415705,0.16799 0.417311,0.12144 0.403126,0.0729 0.373152,0.0225 0.32739,-0.0299 0.265837,-0.0842 0.188496,-0.14045 0.09084,-0.15982 0.05248,-0.21189 0.01578,-0.25093 -0.01927,-0.27693 -0.05266,-0.28988 -0.0844,-0.2898 -0.114482,-0.27667 -0.14291,-0.25051 -0.02373,-0.0455 0.0054,-0.0211 0.03246,0.002 0.05743,0.0245 0.0803,0.0457 0.101091,0.0658 0.119791,0.0849 0.136402,0.10288 0.343595,0.2542 0.322511,0.21266 0.307264,0.17348 0.297855,0.13666 0.294284,0.1022 0.296551,0.0701 0.304657,0.0403 0.3186,0.0129 0.208012,-0.004 0.166258,-0.0147 0.128825,-0.028 0.09571,-0.0441 0.06692,-0.0631 0.04245,-0.0849 0.0223,-0.10957 0.0065,-0.13709 -0.01257,-0.11342 -0.03602,-0.13645 -0.05694,-0.15431 -0.07534,-0.16698 -0.09122,-0.17449 -0.10457,-0.17682 -0.115393,-0.17396 -0.123692,-0.16593 -0.07697,-0.0971 -0.07697,-0.0971 -0.07697,-0.0971 -0.07697,-0.0971 -0.07697,-0.0971 -0.07697,-0.0971 -0.07697,-0.0971 -0.07697,-0.0971 0.111359,0.0562 0.11136,0.0562 0.111359,0.0562 0.11136,0.0562 0.111359,0.0562 0.111359,0.0562 0.11136,0.0562 0.111359,0.0562 0.38653,0.17873 0.325063,0.1131 0.266656,0.0465 0.211311,-0.0209 0.159025,-0.0893 0.1098,-0.15854 0.06364,-0.22873 0.02053,-0.29982 -0.02807,-0.34035 -0.08859,-0.28552 -0.155684,-0.23476 -0.229361,-0.18807 -0.309615,-0.14546 -0.396448,-0.10691 -0.48986,-0.0724 -0.589849,-0.042 -0.179811,-0.008 -0.179812,-0.008 -0.179811,-0.008 -0.179812,-0.008 -0.179811,-0.008 -0.179811,-0.008 -0.179812,-0.008 -0.179811,-0.008 0.08944,-0.0386 0.08945,-0.0386 0.08944,-0.0386 0.08944,-0.0386 0.08945,-0.0386 0.08944,-0.0386 0.08945,-0.0386 0.08944,-0.0386 0.486783,-0.29458 0.323971,-0.36813 0.16639,-0.40692 0.01404,-0.41091 -0.133071,-0.38014 -0.274953,-0.31458 -0.411601,-0.21425 -0.543017,-0.0791 -0.307528,0.0346 -0.321878,0.0959 -0.319168,0.14536 -0.299396,0.18289 -0.262563,0.20855 -0.208668,0.22232 -0.137712,0.22421 -0.0497,0.21422 -0.0062,0.13776 -0.02542,0.0947 -0.05512,0.0499 -0.09527,0.003 -0.145863,-0.0453 -0.206896,-0.0956 -0.278372,-0.14772 -0.360291,-0.20168 -0.485849,-0.2511 -0.466701,-0.18981 -0.454519,-0.12914 -0.449301,-0.0691 -0.451047,-0.01 -0.459759,0.0493 -0.475434,0.10749 -0.498075,0.16514 -0.141843,0.0537 -0.141843,0.0537 -0.141843,0.0537 -0.141844,0.0537 -0.141843,0.0537 -0.141843,0.0537 -0.141843,0.0537 -0.141843,0.0537 -0.07894,-0.0803 -0.07894,-0.0803 -0.07894,-0.0803 -0.07894,-0.0803 -0.07894,-0.0803 -0.07894,-0.0803 -0.07894,-0.0803 -0.07894,-0.0803 -0.472633,-0.40888 -0.541708,-0.34179 -0.598276,-0.27164 -0.642335,-0.19845 -0.673889,-0.12221 -0.692936,-0.0429 -0.699477,0.0394 -0.693512,0.12479 -0.234704,0.0547 -0.182866,0.0324 -0.139283,0.007 -0.103955,-0.023 -0.07688,-0.0561 -0.05807,-0.0928 -0.0475,-0.13315 -0.04519,-0.17709 -0.132074,-0.28459 -0.24984,-0.26793 -0.351828,-0.24471 -0.438035,-0.21493 -0.508461,-0.17858 -0.563108,-0.13569 -0.601975,-0.0862 -0.625061,-0.0302 -0.335065,-0.003 -0.268694,-0.0102 -0.207361,-0.0187 -0.151063,-0.0285 -0.0998,-0.0397 -0.05357,-0.0523 -0.01238,-0.0662 0.02377,-0.0815 0.01113,-0.13057 -0.08125,-0.11648 -0.161856,-0.0993 -0.230701,-0.0791 -0.287779,-0.0558 -0.333092,-0.0295 -0.366637,-5e-5 -0.388418,0.0324 -0.09016,0.0113 -0.09016,0.0113 -0.09016,0.0113 -0.09016,0.0113 -0.09016,0.0113 -0.09016,0.0113 -0.09016,0.0113 -0.09016,0.0113 0.065,-0.0592 0.065,-0.0592 0.065,-0.0592 0.065,-0.0592 0.065,-0.0592 0.065,-0.0592 0.065,-0.0592 0.065,-0.0592 0.164874,-0.15216 0.1187,-0.11799 0.07319,-0.0904 0.02835,-0.0695 -0.01583,-0.0552 -0.05935,-0.0475 -0.102204,-0.0464 -0.144391,-0.0519 -0.115445,-0.0316 -0.153529,-0.0296 -0.184976,-0.0269 -0.209785,-0.0236 -0.227958,-0.0196 -0.239493,-0.0149 -0.24439,-0.01 -0.242651,-0.004 -0.344988,0.004 -0.286393,0.0174 -0.241079,0.0353 -0.209046,0.058 -0.190294,0.0855 -0.184823,0.11775 -0.192633,0.15479 -0.213725,0.1966 -0.266029,0.28612 -0.200945,0.28942 -0.136542,0.29801 -0.07282,0.31191 -0.0098,0.33113 0.05258,0.35563 0.114252,0.38546 0.175247,0.42058 0.04467,0.0956 0.04467,0.0956 0.04467,0.0956 0.04467,0.0956 0.04467,0.0956 0.04467,0.0956 0.04467,0.0956 0.04467,0.0956 -0.08912,-0.0884 -0.08912,-0.0884 -0.08912,-0.0884 -0.08912,-0.0884 -0.08912,-0.0884 -0.08912,-0.0884 -0.08912,-0.0884 -0.08912,-0.0884 -0.437685,-0.39013 -0.303619,-0.18355 -0.17183,-9.8e-4 -0.04232,0.15755 0.08492,0.29205 0.209878,0.40253 0.332561,0.48898 0.452966,0.5514 0.101546,0.11387 0.101547,0.11388 0.101546,0.11387 0.101547,0.11387 0.101546,0.11387 0.101546,0.11388 0.101547,0.11387 0.101546,0.11387 -0.148834,-0.0151 -0.148834,-0.0151 -0.148834,-0.0151 -0.148834,-0.0151 -0.148835,-0.0151 -0.148834,-0.0151 -0.148834,-0.0151 -0.148834,-0.0151 -0.357827,-0.0338 -0.278825,-0.0187 -0.20947,-0.001 -0.149756,0.0184 -0.09969,0.0403 -0.05927,0.0645 -0.02849,0.091 -0.0074,0.11971 0.0061,0.0871 0.01758,0.0938 0.02779,0.0977 0.03677,0.0985 0.04452,0.0964 0.05103,0.0914 0.05631,0.0834 0.06036,0.0724 0.305967,0.274 0.430253,0.3169 0.511771,0.33532 0.550519,0.32925 0.546497,0.29869 0.499705,0.24367 0.410144,0.16415 0.277813,0.0602 0.164404,-0.005 0.12592,-0.0196 0.09121,-0.0415 0.06029,-0.0705 0.03315,-0.10666 0.0098,-0.15001 -0.0098,-0.20052 -0.0256,-0.2582 -0.02246,-0.22246 -0.0117,-0.17253 -3.46e-4,-0.12447 0.01161,-0.0783 0.02416,-0.034 0.03731,0.008 0.05106,0.0489 0.06541,0.0876 0.214372,0.29041 0.240905,0.28635 0.260504,0.27606 0.273166,0.25954 0.278894,0.23678 0.277686,0.20778 0.269543,0.17255 0.254465,0.13109 0.429176,0.13638 0.548422,0.0963 0.619605,0.0565 0.642724,0.0168 0.617779,-0.0226 0.54477,-0.0618 0.423697,-0.10074 0.254561,-0.13949 0.07144,-0.0684 0.0843,-0.0719 0.09405,-0.0733 0.100698,-0.0725 0.104238,-0.0695 0.10467,-0.0644 0.101996,-0.0571 0.09621,-0.0477 0.137985,-0.0608 0.0979,-0.034 0.05742,-0.002 0.01656,0.0362 -0.02469,0.0796 -0.06634,0.12855 -0.108369,0.18303 -0.150791,0.24305 -0.203177,0.33552 -0.143427,0.27372 -0.08287,0.22801 -0.02152,0.19835 0.04064,0.18477 0.103594,0.18726 0.167353,0.20581 0.231915,0.24044 0.186854,0.17729 0.173206,0.1367 0.179396,0.10112 0.205421,0.0706 0.251284,0.045 0.316984,0.0245 0.40252,0.009 0.507893,-0.001 0.715436,-0.0228 0.656678,-0.0533 0.58665,-0.0809 0.505348,-0.10569 0.412776,-0.1276 0.308932,-0.14666 0.193814,-0.16284 0.06743,-0.17617 0.0078,-0.067 0.02274,-0.0368 0.03719,-0.007 0.05116,0.0226 0.06465,0.0518 0.07766,0.0807 0.0902,0.10938 0.102244,0.13769 0.276239,0.35077 0.296916,0.30664 0.316149,0.2617 0.333939,0.21593 0.350285,0.16937 0.365186,0.12199 0.378645,0.0738 0.390658,0.0248 0.269348,-0.005 0.220562,-0.0164 0.179444,-0.0317 0.145994,-0.0506 0.120211,-0.073 0.102097,-0.099 0.09165,-0.12859 0.08887,-0.16171 1e-6,-1e-5 10e-7,0 10e-7,-1e-5 1e-6,-1e-5 0,-1e-5 10e-7,0 10e-7,-1e-5 z"
       id="path48"
       sodipodi:nodetypes="ccccccccccccccccccccccccccccccccccccccccccccccccccccccccccccccccccccccccccccccccccccccccccccccccccccccccccccccccccccccccccccccccccccccccccccccccccccccccccccccccccccccccccccccccccccccccccccccccccccccccccccccccccccccccccccccccccccccccccccccccccccccccccccccccccccccccccccccccccccccccccccccccccccccccccccccccccccccccccccccccccccccccccccccccccccccccccccccccccccccccccccccccccccccccccccccccccccccccccccccccccccccccccccccccc" />
    <path
       style="fill:#ffccaa;stroke-width:0.2224"
       d="m 47.556638,205.25113 -0.001,-0.0993 0.03071,-0.13192 0.0417,-0.15346 0.03195,-0.16396 0.01822,-0.16847 0.01396,-0.17099 0.0091,-0.16852 0.0036,-0.16107 0.01669,-0.51039 0.04426,-0.36771 0.07078,-0.22492 0.09624,-0.082 0.120637,0.061 0.143984,0.20407 0.166272,0.34726 0.187504,0.49056 0.106542,0.28818 0.110519,0.27202 0.11128,0.24968 0.108828,0.22116 0.103162,0.18646 0.09428,0.14557 0.08219,0.0985 0.06688,0.0453 0.06685,0.002 0.0821,-0.0249 0.09414,-0.0496 0.102973,-0.0718 0.108599,-0.0915 0.111018,-0.1087 0.110228,-0.12345 0.106232,-0.13572 0.141199,-0.20732 0.110472,-0.20063 0.08222,-0.20742 0.05643,-0.22774 0.03311,-0.26153 0.01227,-0.30883 -0.0061,-0.36963 -0.02201,-0.44393 -0.02258,-0.3184 -0.02876,-0.31327 -0.03375,-0.30014 -0.03757,-0.27897 -0.04021,-0.2498 -0.04166,-0.2126 -0.04194,-0.1674 -0.04104,-0.11416 -0.02086,-0.0708 0.02272,-0.03 0.06394,0.01 0.102822,0.0479 0.139351,0.085 0.173532,0.12067 0.205366,0.15512 0.234849,0.18827 0.280774,0.22594 0.235764,0.17902 0.193088,0.13326 0.152747,0.0887 0.114739,0.0453 0.07907,0.003 0.04573,-0.038 0.01472,-0.078 -0.08181,-0.49589 -0.231232,-0.53612 -0.359346,-0.55394 -0.466158,-0.54931 -0.551664,-0.52226 -0.615866,-0.47278 -0.658764,-0.40088 -0.680358,-0.30653 -0.311827,-0.1187 -0.250212,-0.1043 -0.190919,-0.0916 -0.133949,-0.0804 -0.0793,-0.071 -0.02697,-0.0632 0.02303,-0.057 0.07071,-0.0525 0.07675,-0.0368 0.08876,-0.0345 0.0976,-0.0314 0.10327,-0.0275 0.105769,-0.0229 0.105099,-0.0175 0.10126,-0.0113 0.09425,-0.004 0.08432,-0.005 0.0728,-0.0127 0.06011,-0.0196 0.04624,-0.0256 0.0312,-0.0308 0.01499,-0.0352 -0.0024,-0.0387 -0.02097,-0.0414 -0.159127,-0.11175 -0.264165,-0.0687 -0.339622,-0.0279 -0.385496,0.0108 -0.401789,0.0473 -0.3885,0.0816 -0.345629,0.11373 -0.273177,0.14367 -0.169662,0.12737 -0.131762,0.12765 -0.09811,0.14267 -0.06871,0.17241 -0.04355,0.2169 -0.02264,0.2761 -0.006,0.35004 0.0064,0.43872 0.0048,0.29273 8.46e-4,0.27309 -0.0029,0.24747 -0.0064,0.21589 -0.0097,0.17831 -0.01268,0.13476 -0.01545,0.0853 -0.01798,0.0297 -0.03789,-0.0149 -0.07252,-0.0426 -0.1029,-0.0674 -0.129036,-0.0891 -0.150928,-0.10793 -0.168573,-0.12371 -0.181975,-0.13652 -0.191131,-0.14634 -0.191523,-0.14302 -0.183098,-0.12701 -0.170349,-0.10867 -0.153276,-0.088 -0.131881,-0.065 -0.10616,-0.0397 -0.07612,-0.0121 -0.04175,0.0178 -0.09756,0.18281 -0.0843,0.2377 -0.06889,0.27686 -0.05133,0.30024 -0.03162,0.30788 -0.0098,0.29976 0.01424,0.27588 0.04039,0.23625 0.0731,0.22 0.09027,0.17592 0.09914,0.12774 0.09972,0.0755 0.092,0.0191 0.07598,-0.0413 0.05167,-0.10588 0.01907,-0.17453 0.0049,-0.0619 0.01406,-0.0527 0.02223,-0.0427 0.02941,-0.032 0.03561,-0.0204 0.04082,-0.008 0.04505,0.005 0.04829,0.019 0.04829,0.0326 0.04506,0.0442 0.04084,0.0538 0.03564,0.0614 0.02944,0.0671 0.02226,0.0709 0.0141,0.0726 0.0049,0.0725 0.06002,0.28367 0.163696,0.40784 0.243073,0.49075 0.29816,0.5324 0.328953,0.53278 0.335452,0.49191 0.31766,0.40978 0.275574,0.28639 0.256247,0.20863 0.216214,0.15043 0.180862,0.0924 0.150186,0.0346 0.147723,-0.0301 0.142093,-0.0922 0.09408,-0.14 0.0037,-0.1735 0,0 -10e-7,0 0,0 0,-1e-5 -1e-6,0 0,0 -10e-7,0 z"
       id="path46"
       sodipodi:nodetypes="ccccccccccccccccccccccccccccccccccccccccccccccccccccccccccccccccccccccccccccccccccccccccccccccccccccccccccccccccccccccccccccccccccccccccccccccccccccccccccccccccccccccccccccccccccccccccccccccccc" />
    <path
       style="fill:#ffccaa;stroke-width:0.2224"
       d="m 33.062535,210.72393 0.286144,-0.24166 0.266948,-0.24098 0.241908,-0.23392 0.211026,-0.22048 0.174302,-0.20063 0.131735,-0.17442 0.08333,-0.14182 0.02907,-0.10283 -0.02067,-0.23148 -0.05886,-0.21944 -0.09233,-0.20158 -0.121065,-0.17794 -0.145074,-0.14848 -0.164354,-0.11325 -0.178907,-0.0722 -0.188731,-0.0254 -0.136432,0.008 -0.108017,0.0279 -0.08275,0.0546 -0.06064,0.088 -0.04168,0.128 -0.02587,0.17467 -0.01321,0.22799 -0.0037,0.28797 -0.0061,0.25509 -0.01901,0.22506 -0.03284,0.19781 -0.04762,0.17333 -0.06335,0.15164 -0.08003,0.13272 -0.09766,0.11659 -0.11624,0.10324 -0.222732,0.14429 -0.225373,0.0927 -0.223442,0.0418 -0.216937,-0.008 -0.205857,-0.0579 -0.190204,-0.1066 -0.169979,-0.15462 -0.145178,-0.20193 -0.08121,-0.13327 -0.07045,-0.0988 -0.06359,-0.0654 -0.06063,-0.0331 -0.06157,-0.002 -0.0664,0.0281 -0.07514,0.057 -0.08778,0.0849 -0.117009,0.22021 -0.01772,0.2868 0.06652,0.32382 0.135731,0.33126 0.189902,0.30913 0.229032,0.25743 0.253125,0.17614 0.262179,0.0653 0.07346,-0.0237 0.124737,-0.068 0.169262,-0.10755 0.207039,-0.14231 0.238066,-0.1723 0.262344,-0.1975 0.279873,-0.21796 z"
       id="path42"
       sodipodi:nodetypes="ccccccccccccccccccccccccccccccccccccccccccccccccccccccccccccccccc" />
    <path
       style="fill:#ffccaa;stroke-width:0.2224"
       d="m 23.944213,211.31609 0.19984,-0.20183 0.15714,-0.20743 0.11368,-0.20969 0.06946,-0.20861 0.02448,-0.20421 -0.02126,-0.19644 -0.06776,-0.18536 -0.115018,-0.17093 -0.104989,-0.11885 -0.08556,-0.0814 -0.07272,-0.0419 -0.06645,-2.1e-4 -0.06676,0.0436 -0.07365,0.0896 -0.08712,0.13772 -0.107172,0.188 -0.290261,0.36491 -0.357339,0.2199 -0.391815,0.0838 -0.393686,-0.0436 -0.362954,-0.16198 -0.299619,-0.27156 -0.20368,-0.37229 -0.07514,-0.46416 -0.0063,-0.19075 -0.02178,-0.15737 -0.04154,-0.1292 -0.06557,-0.10628 -0.09387,-0.0886 -0.126458,-0.0761 -0.163322,-0.0689 -0.204463,-0.0668 -0.217345,-0.0609 -0.177545,-0.038 -0.146149,-0.013 -0.123158,0.014 -0.108572,0.0431 -0.10239,0.0743 -0.104614,0.1075 -0.115242,0.1428 -0.114465,0.16031 -0.06521,0.14113 -0.0038,0.14148 0.06976,0.16139 0.155475,0.20083 0.253339,0.25983 0.363357,0.33835 0.485525,0.43642 0.455934,0.40241 0.370857,0.31267 0.303116,0.2326 0.252706,0.1622 0.219629,0.10149 0.203887,0.0505 0.205477,0.009 0.224401,-0.0226 0.152787,-0.0285 0.158177,-0.0406 0.158985,-0.0508 0.155215,-0.0591 0.146863,-0.0656 0.133931,-0.0701 0.11642,-0.0727 z"
       id="path38"
       sodipodi:nodetypes="ccccccccccccccccccccccccccccccccccccccccccccccccccccccccccccccccc" />
  </g>
</svg>
