<?xml version="1.0" encoding="UTF-8" standalone="no"?>
<svg
   xmlns:dc="http://purl.org/dc/elements/1.1/"
   xmlns:cc="http://creativecommons.org/ns#"
   xmlns:rdf="http://www.w3.org/1999/02/22-rdf-syntax-ns#"
   xmlns:svg="http://www.w3.org/2000/svg"
   xmlns="http://www.w3.org/2000/svg"
   xmlns:sodipodi="http://sodipodi.sourceforge.net/DTD/sodipodi-0.dtd"
   xmlns:inkscape="http://www.inkscape.org/namespaces/inkscape"
   width="50mm"
   height="50mm"
   viewBox="0 0 50 50"
   version="1.1"
   id="svg8"
   inkscape:version="1.0.1 (3bc2e813f5, 2020-09-07)"
   sodipodi:docname="sombra.svg">
  <defs
     id="defs2" />
  <sodipodi:namedview
     id="base"
     pagecolor="#ffffff"
     bordercolor="#666666"
     borderopacity="1.0"
     inkscape:pageopacity="0.0"
     inkscape:pageshadow="2"
     inkscape:zoom="5.6"
     inkscape:cx="104.6205"
     inkscape:cy="120.32715"
     inkscape:document-units="mm"
     inkscape:current-layer="layer1"
     inkscape:document-rotation="0"
     showgrid="false"
     inkscape:window-width="1350"
     inkscape:window-height="729"
     inkscape:window-x="0"
     inkscape:window-y="0"
     inkscape:window-maximized="0" />
  <metadata
     id="metadata5">
    <rdf:RDF>
      <cc:Work
         rdf:about="">
        <dc:format>image/svg+xml</dc:format>
        <dc:type
           rdf:resource="http://purl.org/dc/dcmitype/StillImage" />
        <dc:title />
      </cc:Work>
    </rdf:RDF>
  </metadata>
  <g
     inkscape:label="Layer 1"
     inkscape:groupmode="layer"
     id="layer1"
     transform="translate(-3.4773812,-176.49599)">
    <path
       style="fill:#008000;stroke-width:0.2224"
       d="m 26.234006,214.13315 c -0.246201,-0.12745 -0.797119,-0.17077 -1.249035,-0.0982 -0.652421,0.10477 -0.857469,0.0516 -1.061914,-0.2754 -0.139352,-0.22287 -0.253368,-0.5965 -0.253368,-0.83028 0,-0.24065 -0.156431,-0.42505 -0.360577,-0.42505 -0.436585,0 -0.447095,0.0928 -0.0692,0.61072 0.16026,0.21965 0.223732,0.45728 0.141049,0.52805 -0.274597,0.23505 -1.310217,-0.51421 -2.4553,-1.77636 -0.622035,-0.68563 -1.673908,-1.5355 -2.337494,-1.88859 -1.049883,-0.55864 -1.144379,-0.66167 -0.727872,-0.79355 1.136101,-0.35974 0.812282,-1.34525 -0.899414,-2.73728 -0.722934,-0.58793 -0.974346,-1.14464 -0.516921,-1.14464 0.124409,0 0.293052,0.0926 0.374763,0.20577 0.172698,0.23918 0.614449,0.27887 0.572495,0.0514 -0.09316,-0.50504 0.12082,-0.46707 0.869813,0.15432 0.630853,0.52338 0.841346,0.61069 0.841346,0.349 0,-0.35617 0.359991,-0.47698 0.567,-0.19028 0.26854,0.37193 2.302736,1.48783 2.169202,1.18997 -0.237382,-0.52951 0.699036,-0.38212 1.734943,0.27307 0.51563,0.32613 1.418624,1.01957 2.006653,1.54099 0.754495,0.66904 1.124824,0.873 1.258338,0.69306 0.416037,-0.56072 0.173858,-1.5239 -0.64479,-2.56443 -1.027148,-1.30555 -1.045628,-1.43298 -0.123148,-0.8492 0.395008,0.24998 0.754829,0.41479 0.799601,0.36625 0.04477,-0.0485 0.321907,-0.43071 0.615854,-0.84925 0.498566,-0.70989 1.335145,-1.17382 1.642415,-0.91081 0.07374,0.0631 -0.204847,0.44517 -0.619077,0.849 -0.675695,0.65873 -0.753145,0.8693 -0.753145,2.04769 0,2.51792 0.623214,2.63025 2.505534,0.45157 0.718875,-0.83205 1.647421,-1.75798 2.06343,-2.05761 0.75382,-0.54294 1.681036,-0.72993 1.681036,-0.33902 0,0.11317 -0.126202,0.20576 -0.280449,0.20576 -0.154245,0 -0.231152,0.0422 -0.170902,0.0938 0.06025,0.0516 0.56107,-0.0394 1.112931,-0.20214 1.132829,-0.33407 2.560442,-0.19907 2.370694,0.22418 -0.06549,0.14609 0.03675,0.37632 0.227207,0.51162 0.578476,0.41094 0.398714,0.66755 -0.374865,0.53512 -0.536075,-0.0918 -0.721154,-0.0469 -0.721154,0.17495 0,0.23814 -0.129265,0.25634 -0.640106,0.0901 -0.998077,-0.32481 -1.24161,0.0614 -0.624072,0.98965 0.421647,0.63381 0.666899,0.78349 1.369666,0.83592 0.470827,0.0351 0.85605,0.13847 0.85605,0.22965 0,0.0912 -0.737235,0.44796 -1.6383,0.79283 -1.09418,0.41878 -1.859096,0.87482 -2.303103,1.37309 -0.36564,0.41034 -1.076904,0.9795 -1.580587,1.26481 -0.648301,0.36723 -0.88213,0.62891 -0.80056,0.89589 0.102137,0.33433 -0.04414,0.37651 -1.288327,0.37149 -0.77195,-0.003 -1.728065,0.0542 -2.1247,0.12737 -0.397113,0.0733 -0.919082,0.0306 -1.161644,-0.095 z"
       id="path34" />
    <path
       style="fill:#ffccaa;stroke-width:0.2224"
       d="m 23.944213,211.31609 c 0.589167,-0.52777 0.730963,-1.1509 0.36056,-1.5845 -0.311717,-0.3649 -0.346066,-0.3537 -0.664437,0.21655 -0.655606,1.1743 -2.374493,0.7074 -2.374493,-0.64498 0,-0.55783 -0.11942,-0.70378 -0.723313,-0.88398 -0.640126,-0.19101 -0.766061,-0.15998 -1.095015,0.26975 -0.360112,0.47044 -0.324441,0.52781 1.143986,1.83974 1.344662,1.20136 1.596967,1.34222 2.236007,1.24833 0.396176,-0.0582 0.898693,-0.26561 1.116705,-0.46091 z"
       id="path38" />
    <path
       style="fill:#ffccaa;stroke-width:0.2224"
       d="m 29.752217,211.56769 c -0.589167,-0.52777 -0.730963,-1.1509 -0.36056,-1.5845 0.311717,-0.3649 0.346066,-0.3537 0.664437,0.21655 0.655606,1.1743 2.374493,0.7074 2.374493,-0.64498 0,-0.55783 0.11942,-0.70378 0.723313,-0.88398 0.640126,-0.19101 0.766061,-0.15998 1.095015,0.26975 0.360112,0.47044 0.324441,0.52781 -1.143986,1.83974 -1.344662,1.20136 -1.596967,1.34222 -2.236007,1.24833 -0.396176,-0.0582 -0.898693,-0.26561 -1.116705,-0.46091 z"
       id="path38-3" />
  </g>
</svg>
